<svg width="18" height="19" viewBox="0 0 18 19" fill="none" xmlns="http://www.w3.org/2000/svg">
<path d="M9.44556 12.6421H9.82056C9.99179 12.645 10.1619 12.6138 10.3209 12.5503C10.48 12.4868 10.6248 12.3922 10.7469 12.2722C10.869 12.1521 10.966 12.0089 11.0322 11.851C11.0985 11.6931 11.1326 11.5235 11.1326 11.3523C11.1326 11.181 11.0985 11.0115 11.0322 10.8535C10.966 10.6956 10.869 10.5524 10.7469 10.4323C10.6248 10.3123 10.48 10.2177 10.3209 10.1542C10.1619 10.0907 9.99179 10.0595 9.82056 10.0624H9.44556V12.6421Z" fill="#A8ADB5"/>
<path d="M9 1.0625C7.33122 1.0625 5.69992 1.55735 4.31238 2.48448C2.92484 3.4116 1.84338 4.72936 1.20477 6.27111C0.566156 7.81286 0.399065 9.50936 0.724628 11.1461C1.05019 12.7828 1.85378 14.2862 3.03379 15.4662C4.2138 16.6462 5.71721 17.4498 7.35393 17.7754C8.99064 18.1009 10.6871 17.9338 12.2289 17.2952C13.7706 16.6566 15.0884 15.5752 16.0155 14.1876C16.9427 12.8001 17.4375 11.1688 17.4375 9.5C17.4375 8.39197 17.2193 7.29479 16.7952 6.27111C16.3712 5.24742 15.7497 4.31728 14.9662 3.53379C14.1827 2.75029 13.2526 2.12879 12.2289 1.70477C11.2052 1.28074 10.108 1.0625 9 1.0625ZM9.822 8.9375C10.1417 8.93352 10.4589 8.99304 10.7554 9.1126C11.0519 9.23217 11.3216 9.40941 11.5491 9.63404C11.7765 9.85868 11.9571 10.1262 12.0804 10.4212C12.2036 10.7161 12.2671 11.0326 12.2671 11.3523C12.2671 11.672 12.2036 11.9885 12.0804 12.2834C11.9571 12.5784 11.7765 12.846 11.5491 13.0706C11.3216 13.2952 11.0519 13.4725 10.7554 13.592C10.4589 13.7116 10.1417 13.7711 9.822 13.7671H9.447V14.975C9.447 15.1242 9.38774 15.2673 9.28225 15.3727C9.17676 15.4782 9.03369 15.5375 8.8845 15.5375C8.73532 15.5375 8.59225 15.4782 8.48676 15.3727C8.38127 15.2673 8.322 15.1242 8.322 14.975V13.7671H7.947C7.30672 13.7664 6.69286 13.5118 6.24011 13.059C5.78736 12.6063 5.5327 11.9924 5.532 11.3521C5.532 11.2029 5.59127 11.0599 5.69676 10.9544C5.80225 10.8489 5.94532 10.7896 6.0945 10.7896C6.24369 10.7896 6.38676 10.8489 6.49225 10.9544C6.59774 11.0599 6.657 11.2029 6.657 11.3521C6.6574 11.6941 6.79344 12.022 7.03527 12.2639C7.27711 12.5057 7.605 12.6417 7.947 12.6421H8.322V10.0625H7.947C7.62735 10.0665 7.31009 10.007 7.01362 9.8874C6.71715 9.76783 6.44737 9.59059 6.21992 9.36596C5.99247 9.14132 5.81189 8.87377 5.68863 8.57881C5.56538 8.28386 5.50191 7.96736 5.50191 7.64769C5.50191 7.32801 5.56538 7.01152 5.68863 6.71656C5.81189 6.4216 5.99247 6.15405 6.21992 5.92942C6.44737 5.70479 6.71715 5.52755 7.01362 5.40798C7.31009 5.28841 7.62735 5.22889 7.947 5.23287H8.322V4.025C8.322 3.87582 8.38127 3.73274 8.48676 3.62725C8.59225 3.52176 8.73532 3.4625 8.8845 3.4625C9.03369 3.4625 9.17676 3.52176 9.28225 3.62725C9.38774 3.73274 9.447 3.87582 9.447 4.025V5.23287H9.822C10.4623 5.23357 11.0761 5.48823 11.5289 5.94098C11.9816 6.39373 12.2363 7.00759 12.237 7.64788C12.237 7.79706 12.1777 7.94013 12.0723 8.04562C11.9668 8.15111 11.8237 8.21038 11.6745 8.21038C11.5253 8.21038 11.3822 8.15111 11.2768 8.04562C11.1713 7.94013 11.112 7.79706 11.112 7.64788C11.1116 7.30587 10.9756 6.97798 10.7337 6.73615C10.4919 6.49431 10.164 6.35827 9.822 6.35787H9.447V8.9375H9.822Z" fill="#A8ADB5"/>
<path d="M6.65442 7.64791C6.65482 7.98988 6.79087 8.31773 7.03271 8.55951C7.27456 8.80128 7.60245 8.93724 7.94442 8.93754H8.31942V6.35791H7.94442C7.60241 6.35831 7.27453 6.49435 7.03269 6.73618C6.79085 6.97802 6.65482 7.3059 6.65442 7.64791Z" fill="#A8ADB5"/>
</svg>
