<svg width="24" height="24" viewBox="0 0 24 24" fill="none" xmlns="http://www.w3.org/2000/svg">
<rect width="24" height="24" rx="3" fill="#A8ADB5" fill-opacity="0.15"/>
<path d="M12 18.6666C15.6819 18.6666 18.6667 15.6818 18.6667 11.9999C18.6667 8.31802 15.6819 5.33325 12 5.33325C8.31814 5.33325 5.33337 8.31802 5.33337 11.9999C5.33337 15.6818 8.31814 18.6666 12 18.6666Z" stroke="#A8ADB5" stroke-width="1.5" stroke-linecap="round" stroke-linejoin="round"/>
<path d="M12 15.3333H12.006" stroke="#A8ADB5" stroke-width="1.5" stroke-linecap="round" stroke-linejoin="round"/>
<path d="M10.0601 9.99989C10.2168 9.55434 10.5262 9.17863 10.9334 8.93931C11.3406 8.7 11.8193 8.61252 12.2848 8.69237C12.7504 8.77222 13.1726 9.01424 13.4768 9.37558C13.781 9.73691 13.9474 10.1942 13.9467 10.6666C13.9467 12.2363 12.0001 11.9878 12.0001 13.3332" stroke="#A8ADB5" stroke-width="1.5" stroke-linecap="round" stroke-linejoin="round"/>
</svg>
