<svg width="26" height="16" viewBox="0 0 26 16" fill="none" xmlns="http://www.w3.org/2000/svg">
<path d="M23.3405 12.4231H21.7106C22.0046 11.5414 22.1649 10.5794 22.1649 9.61749C22.1649 4.56747 18.0501 0.452637 13 0.452637C7.94989 0.452637 3.83515 4.54075 3.83515 9.61749C3.83515 10.6061 3.99544 11.5413 4.28936 12.4231H2.65946C1.72418 12.4229 0.976074 13.1711 0.976074 14.0797C0.976074 15.015 1.72423 15.7362 2.65946 15.7362H23.3672C24.3025 15.7362 25.0238 14.9881 25.0238 14.0797C25.0238 13.1711 24.2756 12.4229 23.3404 12.4229L23.3405 12.4231ZM13.5879 14.0799V13.599C14.5231 13.4387 15.1911 12.9845 15.5652 12.3967C15.8056 12.0226 15.9126 11.6219 15.9126 11.1675C15.9126 9.99175 15.2713 9.27028 13.7215 8.70926C12.5992 8.2817 12.1451 8.01459 12.1451 7.58703C12.1451 7.21297 12.4123 6.86555 13.2673 6.86555C13.7215 6.86555 14.1224 6.9457 14.4161 7.02584C14.8169 7.15948 15.2444 6.8922 15.3514 6.49149C15.4582 6.09078 15.2178 5.66323 14.7902 5.55621C14.4696 5.47607 14.0687 5.39592 13.6145 5.39592V4.8882C13.6145 4.54079 13.3206 4.24688 12.9732 4.24688C12.6258 4.24688 12.3319 4.5408 12.3319 4.8882V5.5027C10.9424 5.76998 10.1141 6.67842 10.1141 7.82727C10.1141 9.08309 11.076 9.75109 12.4655 10.2319C13.4274 10.5525 13.855 10.8733 13.855 11.3808C13.855 11.9151 13.3472 12.1824 12.5991 12.1824C12.0914 12.1824 11.6106 12.0756 11.183 11.942C10.7823 11.8084 10.3547 12.0221 10.2211 12.4229V12.4495L10.1944 12.503C10.0876 12.8771 10.3012 13.2778 10.6753 13.4114C11.1295 13.5717 11.6907 13.6787 12.2517 13.7053V14.1061L6.8009 14.1064C6.42683 13.5987 6.10624 13.0377 5.89248 12.4231C5.54506 11.5413 5.35813 10.6062 5.35813 9.61744C5.35813 5.39587 8.77825 1.94889 13 1.94889C17.2217 1.94889 20.6418 5.36901 20.6418 9.59072C20.6418 10.5793 20.4547 11.5412 20.1074 12.3963C19.867 12.9842 19.5731 13.5452 19.199 14.0797L13.5879 14.0799Z" fill="#2E2E3A"/>
</svg>
