<svg width="147" height="35" viewBox="0 0 147 35" fill="none" xmlns="http://www.w3.org/2000/svg">
<path d="M51.593 23H49.74C48.8447 23 48.1533 22.762 47.666 22.286C47.1787 21.81 46.935 21.1243 46.935 20.229V14.84C46.935 13.9447 47.1787 13.259 47.666 12.783C48.1533 12.307 48.8447 12.069 49.74 12.069H51.593C52.477 12.069 53.1627 12.3127 53.65 12.8C54.1487 13.276 54.398 13.956 54.398 14.84V15.639C54.398 15.8883 54.2733 16.013 54.024 16.013H52.596C52.358 16.013 52.239 15.8883 52.239 15.639V14.942C52.239 14.5793 52.1597 14.3243 52.001 14.177C51.8537 14.0183 51.5987 13.939 51.236 13.939H50.08C49.7287 13.939 49.4737 14.0183 49.315 14.177C49.1677 14.3243 49.094 14.5793 49.094 14.942V20.127C49.094 20.4897 49.1677 20.7503 49.315 20.909C49.4737 21.0563 49.7287 21.13 50.08 21.13H51.236C51.5987 21.13 51.8537 21.0563 52.001 20.909C52.1597 20.7503 52.239 20.4897 52.239 20.127V19.43C52.239 19.1807 52.358 19.056 52.596 19.056H54.024C54.2733 19.056 54.398 19.1807 54.398 19.43V20.229C54.398 21.113 54.1487 21.7987 53.65 22.286C53.1627 22.762 52.477 23 51.593 23ZM55.9805 20.212V19.872C55.9805 19.634 56.0995 19.515 56.3375 19.515H57.7825C58.0205 19.515 58.1395 19.634 58.1395 19.872V20.008C58.1395 20.4387 58.2245 20.7333 58.3945 20.892C58.5645 21.0507 58.8761 21.13 59.3295 21.13H60.1285C60.5705 21.13 60.8765 21.045 61.0465 20.875C61.2278 20.705 61.3185 20.3877 61.3185 19.923V19.719C61.3185 19.3903 61.1825 19.141 60.9105 18.971C60.6498 18.7897 60.3211 18.682 59.9245 18.648C59.5278 18.614 59.0971 18.5517 58.6325 18.461C58.1791 18.359 57.7541 18.2343 57.3575 18.087C56.9608 17.9283 56.6265 17.628 56.3545 17.186C56.0938 16.7327 55.9635 16.1547 55.9635 15.452V14.857C55.9635 13.973 56.2128 13.2873 56.7115 12.8C57.2101 12.3127 57.9015 12.069 58.7855 12.069H60.4855C61.3808 12.069 62.0778 12.3127 62.5765 12.8C63.0751 13.2873 63.3245 13.973 63.3245 14.857V15.18C63.3245 15.418 63.2055 15.537 62.9675 15.537H61.5225C61.2845 15.537 61.1655 15.418 61.1655 15.18V15.078C61.1655 14.636 61.0805 14.3357 60.9105 14.177C60.7405 14.0183 60.4288 13.939 59.9755 13.939H59.3125C58.8478 13.939 58.5305 14.0297 58.3605 14.211C58.2018 14.381 58.1225 14.721 58.1225 15.231V15.554C58.1225 16.0867 58.5871 16.3927 59.5165 16.472C60.4798 16.5513 61.3355 16.744 62.0835 17.05C62.4801 17.22 62.8088 17.526 63.0695 17.968C63.3415 18.3987 63.4775 18.954 63.4775 19.634V20.212C63.4775 21.096 63.2281 21.7817 62.7295 22.269C62.2308 22.7563 61.5395 23 60.6555 23H58.8025C57.9185 23 57.2271 22.7563 56.7285 22.269C56.2298 21.7817 55.9805 21.096 55.9805 20.212ZM65.1445 20.212V19.872C65.1445 19.634 65.2635 19.515 65.5015 19.515H66.9465C67.1845 19.515 67.3035 19.634 67.3035 19.872V20.008C67.3035 20.4387 67.3885 20.7333 67.5585 20.892C67.7285 21.0507 68.0402 21.13 68.4935 21.13H69.2925C69.7345 21.13 70.0405 21.045 70.2105 20.875C70.3919 20.705 70.4825 20.3877 70.4825 19.923V19.719C70.4825 19.3903 70.3465 19.141 70.0745 18.971C69.8139 18.7897 69.4852 18.682 69.0885 18.648C68.6919 18.614 68.2612 18.5517 67.7965 18.461C67.3432 18.359 66.9182 18.2343 66.5215 18.087C66.1249 17.9283 65.7905 17.628 65.5185 17.186C65.2579 16.7327 65.1275 16.1547 65.1275 15.452V14.857C65.1275 13.973 65.3769 13.2873 65.8755 12.8C66.3742 12.3127 67.0655 12.069 67.9495 12.069H69.6495C70.5449 12.069 71.2419 12.3127 71.7405 12.8C72.2392 13.2873 72.4885 13.973 72.4885 14.857V15.18C72.4885 15.418 72.3695 15.537 72.1315 15.537H70.6865C70.4485 15.537 70.3295 15.418 70.3295 15.18V15.078C70.3295 14.636 70.2445 14.3357 70.0745 14.177C69.9045 14.0183 69.5929 13.939 69.1395 13.939H68.4765C68.0119 13.939 67.6945 14.0297 67.5245 14.211C67.3659 14.381 67.2865 14.721 67.2865 15.231V15.554C67.2865 16.0867 67.7512 16.3927 68.6805 16.472C69.6439 16.5513 70.4995 16.744 71.2475 17.05C71.6442 17.22 71.9729 17.526 72.2335 17.968C72.5055 18.3987 72.6415 18.954 72.6415 19.634V20.212C72.6415 21.096 72.3922 21.7817 71.8935 22.269C71.3949 22.7563 70.7035 23 69.8195 23H67.9665C67.0825 23 66.3912 22.7563 65.8925 22.269C65.3939 21.7817 65.1445 21.096 65.1445 20.212ZM76.3826 23H74.9376C74.6996 23 74.5806 22.881 74.5806 22.643V12.426C74.5806 12.188 74.6996 12.069 74.9376 12.069H76.3826C76.6206 12.069 76.7396 12.188 76.7396 12.426V17.271H76.7736C76.8643 16.999 77.0399 16.6477 77.3006 16.217L79.8846 12.426C80.0319 12.188 80.2529 12.069 80.5476 12.069H82.2136C82.3383 12.069 82.4119 12.1087 82.4346 12.188C82.4686 12.256 82.4403 12.3467 82.3496 12.46L79.1196 16.931L82.7236 22.575C82.8029 22.711 82.8143 22.8187 82.7576 22.898C82.7123 22.966 82.6103 23 82.4516 23H81.2106C80.8139 23 80.5476 22.881 80.4116 22.643L77.8106 18.478L76.7396 19.736V22.643C76.7396 22.881 76.6206 23 76.3826 23ZM86.3041 12.426V22.643C86.3041 22.881 86.1851 23 85.9471 23H84.5021C84.2641 23 84.1451 22.881 84.1451 22.643V12.426C84.1451 12.188 84.2641 12.069 84.5021 12.069H85.9471C86.1851 12.069 86.3041 12.188 86.3041 12.426ZM90.3603 23H88.9493C88.7113 23 88.5923 22.881 88.5923 22.643V12.426C88.5923 12.188 88.7113 12.069 88.9493 12.069H90.2243C90.4623 12.069 90.621 12.1483 90.7003 12.307L94.1343 18.75H94.2023V12.426C94.2023 12.188 94.3213 12.069 94.5593 12.069H95.9703C96.2083 12.069 96.3273 12.188 96.3273 12.426V22.643C96.3273 22.881 96.2083 23 95.9703 23H94.7293C94.48 23 94.2986 22.8867 94.1853 22.66L90.7853 16.336H90.7173V22.643C90.7173 22.881 90.5983 23 90.3603 23ZM98.2646 20.212V19.872C98.2646 19.634 98.3836 19.515 98.6216 19.515H100.067C100.305 19.515 100.424 19.634 100.424 19.872V20.008C100.424 20.4387 100.509 20.7333 100.679 20.892C100.849 21.0507 101.16 21.13 101.614 21.13H102.413C102.855 21.13 103.161 21.045 103.331 20.875C103.512 20.705 103.603 20.3877 103.603 19.923V19.719C103.603 19.3903 103.467 19.141 103.195 18.971C102.934 18.7897 102.605 18.682 102.209 18.648C101.812 18.614 101.381 18.5517 100.917 18.461C100.463 18.359 100.038 18.2343 99.6416 18.087C99.245 17.9283 98.9106 17.628 98.6386 17.186C98.378 16.7327 98.2476 16.1547 98.2476 15.452V14.857C98.2476 13.973 98.497 13.2873 98.9956 12.8C99.4943 12.3127 100.186 12.069 101.07 12.069H102.77C103.665 12.069 104.362 12.3127 104.861 12.8C105.359 13.2873 105.609 13.973 105.609 14.857V15.18C105.609 15.418 105.49 15.537 105.252 15.537H103.807C103.569 15.537 103.45 15.418 103.45 15.18V15.078C103.45 14.636 103.365 14.3357 103.195 14.177C103.025 14.0183 102.713 13.939 102.26 13.939H101.597C101.132 13.939 100.815 14.0297 100.645 14.211C100.486 14.381 100.407 14.721 100.407 15.231V15.554C100.407 16.0867 100.871 16.3927 101.801 16.472C102.764 16.5513 103.62 16.744 104.368 17.05C104.764 17.22 105.093 17.526 105.354 17.968C105.626 18.3987 105.762 18.954 105.762 19.634V20.212C105.762 21.096 105.512 21.7817 105.014 22.269C104.515 22.7563 103.824 23 102.94 23H101.087C100.203 23 99.5113 22.7563 99.0126 22.269C98.514 21.7817 98.2646 21.096 98.2646 20.212ZM109.503 23H108.058C107.82 23 107.701 22.881 107.701 22.643V12.426C107.701 12.188 107.82 12.069 108.058 12.069H109.503C109.741 12.069 109.86 12.188 109.86 12.426V16.421C109.86 16.5457 109.928 16.608 110.064 16.608H112.937C113.061 16.608 113.124 16.5457 113.124 16.421V12.426C113.124 12.188 113.243 12.069 113.481 12.069H114.926C115.164 12.069 115.283 12.188 115.283 12.426V22.643C115.283 22.881 115.164 23 114.926 23H113.481C113.243 23 113.124 22.881 113.124 22.643V18.665C113.124 18.5403 113.061 18.478 112.937 18.478H110.064C109.928 18.478 109.86 18.5403 109.86 18.665V22.643C109.86 22.881 109.741 23 109.503 23ZM120.471 21.13H121.678C122.04 21.13 122.295 21.0563 122.443 20.909C122.601 20.7503 122.681 20.4897 122.681 20.127V14.942C122.681 14.5793 122.601 14.3243 122.443 14.177C122.295 14.0183 122.04 13.939 121.678 13.939H120.471C120.108 13.939 119.853 14.0183 119.706 14.177C119.558 14.3243 119.485 14.5793 119.485 14.942V20.127C119.485 20.4897 119.558 20.7503 119.706 20.909C119.853 21.0563 120.108 21.13 120.471 21.13ZM122.035 23H120.131C119.235 23 118.544 22.762 118.057 22.286C117.569 21.81 117.326 21.1243 117.326 20.229V14.84C117.326 13.9447 117.569 13.259 118.057 12.783C118.544 12.307 119.235 12.069 120.131 12.069H122.035C122.93 12.069 123.621 12.307 124.109 12.783C124.596 13.259 124.84 13.9447 124.84 14.84V20.229C124.84 21.1243 124.596 21.81 124.109 22.286C123.621 22.762 122.93 23 122.035 23ZM128.678 23H127.233C126.995 23 126.876 22.881 126.876 22.643V12.426C126.876 12.188 126.995 12.069 127.233 12.069H131.381C132.265 12.069 132.95 12.3127 133.438 12.8C133.925 13.276 134.169 13.956 134.169 14.84V16.472C134.169 17.356 133.925 18.0417 133.438 18.529C132.95 19.005 132.265 19.243 131.381 19.243H129.239C129.103 19.243 129.035 19.3053 129.035 19.43V22.643C129.035 22.881 128.916 23 128.678 23ZM129.222 17.356H131.024C131.386 17.356 131.641 17.2823 131.789 17.135C131.936 16.9763 132.01 16.7213 132.01 16.37V14.942C132.01 14.5793 131.936 14.3243 131.789 14.177C131.641 14.0183 131.386 13.939 131.024 13.939H129.222C129.097 13.939 129.035 14.0013 129.035 14.126V17.169C129.035 17.2937 129.097 17.356 129.222 17.356Z" fill="url(#paint0_linear_123_2825)"/>
<path d="M124.37 35H31L35.7541 6.9209H40.6984L36.3246 30.6497C62.5672 30.7156 117.41 30.8079 126.843 30.6497C136.275 30.4915 143.831 23.9925 146.43 20.7627C140.154 29.661 130.646 35 124.37 35Z" fill="url(#paint1_linear_123_2825)"/>
<path d="M125.892 0H37.0852L36.3246 4.54802H125.892C131.87 6.08696 143.577 11.6353 142.816 16.8079C141.866 23.2736 135.4 25.5085 135.4 26.4972C138.379 25.3107 144.87 21.7119 147 16.8079C145.327 7.47458 132.59 1.1413 125.892 0Z" fill="url(#paint2_linear_123_2825)"/>
<path d="M29.5 32L29 35L0 34L29.5 32Z" fill="url(#paint3_linear_123_2825)"/>
<path d="M9 28.5L30.5 27.5L30 30L9 28.5Z" fill="url(#paint4_linear_123_2825)"/>
<path d="M10 8L34 6.9209L33.5 10L10 8Z" fill="url(#paint5_linear_123_2825)"/>
<path d="M32 17L15.5 15.5L32.5 14L32 17Z" fill="url(#paint6_linear_123_2825)"/>
<path d="M31 24L31.7055 20L4 21L31 24Z" fill="url(#paint7_linear_123_2825)"/>
<path d="M34.5 4L35 0L2.5 1.5L34.5 4Z" fill="url(#paint8_linear_123_2825)"/>
<defs>
<linearGradient id="paint0_linear_123_2825" x1="90.5" y1="10" x2="90.5" y2="27" gradientUnits="userSpaceOnUse">
<stop stop-color="#D1D9E4"/>
<stop offset="0.799983" stop-color="#666A71"/>
</linearGradient>
<linearGradient id="paint1_linear_123_2825" x1="32.6359" y1="1.45072" x2="144.772" y2="27.2556" gradientUnits="userSpaceOnUse">
<stop stop-color="#656D75"/>
<stop offset="0.321321" stop-color="#868D94"/>
<stop offset="0.633988" stop-color="#93979B"/>
<stop offset="1" stop-color="#656D75"/>
</linearGradient>
<linearGradient id="paint2_linear_123_2825" x1="32.6359" y1="1.45072" x2="144.772" y2="27.2556" gradientUnits="userSpaceOnUse">
<stop stop-color="#656D75"/>
<stop offset="0.321321" stop-color="#868D94"/>
<stop offset="0.633988" stop-color="#93979B"/>
<stop offset="1" stop-color="#656D75"/>
</linearGradient>
<linearGradient id="paint3_linear_123_2825" x1="32.6359" y1="1.45072" x2="144.772" y2="27.2556" gradientUnits="userSpaceOnUse">
<stop stop-color="#656D75"/>
<stop offset="0.321321" stop-color="#868D94"/>
<stop offset="0.633988" stop-color="#93979B"/>
<stop offset="1" stop-color="#656D75"/>
</linearGradient>
<linearGradient id="paint4_linear_123_2825" x1="32.6359" y1="1.45072" x2="144.772" y2="27.2556" gradientUnits="userSpaceOnUse">
<stop stop-color="#656D75"/>
<stop offset="0.321321" stop-color="#868D94"/>
<stop offset="0.633988" stop-color="#93979B"/>
<stop offset="1" stop-color="#656D75"/>
</linearGradient>
<linearGradient id="paint5_linear_123_2825" x1="32.6359" y1="1.45072" x2="144.772" y2="27.2556" gradientUnits="userSpaceOnUse">
<stop stop-color="#656D75"/>
<stop offset="0.321321" stop-color="#868D94"/>
<stop offset="0.633988" stop-color="#93979B"/>
<stop offset="1" stop-color="#656D75"/>
</linearGradient>
<linearGradient id="paint6_linear_123_2825" x1="32.6359" y1="1.45072" x2="144.772" y2="27.2556" gradientUnits="userSpaceOnUse">
<stop stop-color="#656D75"/>
<stop offset="0.321321" stop-color="#868D94"/>
<stop offset="0.633988" stop-color="#93979B"/>
<stop offset="1" stop-color="#656D75"/>
</linearGradient>
<linearGradient id="paint7_linear_123_2825" x1="32.6359" y1="1.45072" x2="144.772" y2="27.2556" gradientUnits="userSpaceOnUse">
<stop stop-color="#656D75"/>
<stop offset="0.321321" stop-color="#868D94"/>
<stop offset="0.633988" stop-color="#93979B"/>
<stop offset="1" stop-color="#656D75"/>
</linearGradient>
<linearGradient id="paint8_linear_123_2825" x1="32.6359" y1="1.45072" x2="144.772" y2="27.2556" gradientUnits="userSpaceOnUse">
<stop stop-color="#656D75"/>
<stop offset="0.321321" stop-color="#868D94"/>
<stop offset="0.633988" stop-color="#93979B"/>
<stop offset="1" stop-color="#656D75"/>
</linearGradient>
</defs>
</svg>
