<svg width="86" height="22" viewBox="0 0 86 22" fill="none" xmlns="http://www.w3.org/2000/svg">
<path d="M29.29 14H28.2C27.6733 14 27.2667 13.86 26.98 13.58C26.6933 13.3 26.55 12.8967 26.55 12.37V9.2C26.55 8.67333 26.6933 8.27 26.98 7.99C27.2667 7.71 27.6733 7.57 28.2 7.57H29.29C29.81 7.57 30.2133 7.71333 30.5 8C30.7933 8.28 30.94 8.68 30.94 9.2V9.67C30.94 9.81667 30.8667 9.89 30.72 9.89H29.88C29.74 9.89 29.67 9.81667 29.67 9.67V9.26C29.67 9.04667 29.6233 8.89667 29.53 8.81C29.4433 8.71667 29.2933 8.67 29.08 8.67H28.4C28.1933 8.67 28.0433 8.71667 27.95 8.81C27.8633 8.89667 27.82 9.04667 27.82 9.26V12.31C27.82 12.5233 27.8633 12.6767 27.95 12.77C28.0433 12.8567 28.1933 12.9 28.4 12.9H29.08C29.2933 12.9 29.4433 12.8567 29.53 12.77C29.6233 12.6767 29.67 12.5233 29.67 12.31V11.9C29.67 11.7533 29.74 11.68 29.88 11.68H30.72C30.8667 11.68 30.94 11.7533 30.94 11.9V12.37C30.94 12.89 30.7933 13.2933 30.5 13.58C30.2133 13.86 29.81 14 29.29 14ZM31.8709 12.36V12.16C31.8709 12.02 31.9409 11.95 32.0809 11.95H32.9309C33.0709 11.95 33.1409 12.02 33.1409 12.16V12.24C33.1409 12.4933 33.1909 12.6667 33.2909 12.76C33.3909 12.8533 33.5742 12.9 33.8409 12.9H34.3109C34.5709 12.9 34.7509 12.85 34.8509 12.75C34.9575 12.65 35.0109 12.4633 35.0109 12.19V12.07C35.0109 11.8767 34.9309 11.73 34.7709 11.63C34.6175 11.5233 34.4242 11.46 34.1909 11.44C33.9575 11.42 33.7042 11.3833 33.4309 11.33C33.1642 11.27 32.9142 11.1967 32.6809 11.11C32.4475 11.0167 32.2509 10.84 32.0909 10.58C31.9375 10.3133 31.8609 9.97333 31.8609 9.56V9.21C31.8609 8.69 32.0075 8.28667 32.3009 8C32.5942 7.71333 33.0009 7.57 33.5209 7.57H34.5209C35.0475 7.57 35.4575 7.71333 35.7509 8C36.0442 8.28667 36.1909 8.69 36.1909 9.21V9.4C36.1909 9.54 36.1209 9.61 35.9809 9.61H35.1309C34.9909 9.61 34.9209 9.54 34.9209 9.4V9.34C34.9209 9.08 34.8709 8.90333 34.7709 8.81C34.6709 8.71667 34.4875 8.67 34.2209 8.67H33.8309C33.5575 8.67 33.3709 8.72333 33.2709 8.83C33.1775 8.93 33.1309 9.13 33.1309 9.43V9.62C33.1309 9.93333 33.4042 10.1133 33.9509 10.16C34.5175 10.2067 35.0209 10.32 35.4609 10.5C35.6942 10.6 35.8875 10.78 36.0409 11.04C36.2009 11.2933 36.2809 11.62 36.2809 12.02V12.36C36.2809 12.88 36.1342 13.2833 35.8409 13.57C35.5475 13.8567 35.1409 14 34.6209 14H33.5309C33.0109 14 32.6042 13.8567 32.3109 13.57C32.0175 13.2833 31.8709 12.88 31.8709 12.36ZM37.2615 12.36V12.16C37.2615 12.02 37.3315 11.95 37.4715 11.95H38.3215C38.4615 11.95 38.5315 12.02 38.5315 12.16V12.24C38.5315 12.4933 38.5815 12.6667 38.6815 12.76C38.7815 12.8533 38.9648 12.9 39.2315 12.9H39.7015C39.9615 12.9 40.1415 12.85 40.2415 12.75C40.3482 12.65 40.4015 12.4633 40.4015 12.19V12.07C40.4015 11.8767 40.3215 11.73 40.1615 11.63C40.0082 11.5233 39.8148 11.46 39.5815 11.44C39.3482 11.42 39.0948 11.3833 38.8215 11.33C38.5548 11.27 38.3048 11.1967 38.0715 11.11C37.8382 11.0167 37.6415 10.84 37.4815 10.58C37.3282 10.3133 37.2515 9.97333 37.2515 9.56V9.21C37.2515 8.69 37.3982 8.28667 37.6915 8C37.9848 7.71333 38.3915 7.57 38.9115 7.57H39.9115C40.4382 7.57 40.8482 7.71333 41.1415 8C41.4348 8.28667 41.5815 8.69 41.5815 9.21V9.4C41.5815 9.54 41.5115 9.61 41.3715 9.61H40.5215C40.3815 9.61 40.3115 9.54 40.3115 9.4V9.34C40.3115 9.08 40.2615 8.90333 40.1615 8.81C40.0615 8.71667 39.8782 8.67 39.6115 8.67H39.2215C38.9482 8.67 38.7615 8.72333 38.6615 8.83C38.5682 8.93 38.5215 9.13 38.5215 9.43V9.62C38.5215 9.93333 38.7948 10.1133 39.3415 10.16C39.9082 10.2067 40.4115 10.32 40.8515 10.5C41.0848 10.6 41.2782 10.78 41.4315 11.04C41.5915 11.2933 41.6715 11.62 41.6715 12.02V12.36C41.6715 12.88 41.5248 13.2833 41.2315 13.57C40.9382 13.8567 40.5315 14 40.0115 14H38.9215C38.4015 14 37.9948 13.8567 37.7015 13.57C37.4082 13.2833 37.2615 12.88 37.2615 12.36ZM43.8721 14H43.0221C42.8821 14 42.8121 13.93 42.8121 13.79V7.78C42.8121 7.64 42.8821 7.57 43.0221 7.57H43.8721C44.0121 7.57 44.0821 7.64 44.0821 7.78V10.63H44.1021C44.1554 10.47 44.2588 10.2633 44.4121 10.01L45.9321 7.78C46.0188 7.64 46.1488 7.57 46.3221 7.57H47.3021C47.3754 7.57 47.4188 7.59333 47.4321 7.64C47.4521 7.68 47.4354 7.73333 47.3821 7.8L45.4821 10.43L47.6021 13.75C47.6488 13.83 47.6554 13.8933 47.6221 13.94C47.5954 13.98 47.5354 14 47.4421 14H46.7121C46.4788 14 46.3221 13.93 46.2421 13.79L44.7121 11.34L44.0821 12.08V13.79C44.0821 13.93 44.0121 14 43.8721 14ZM49.7083 7.78V13.79C49.7083 13.93 49.6383 14 49.4983 14H48.6483C48.5083 14 48.4383 13.93 48.4383 13.79V7.78C48.4383 7.64 48.5083 7.57 48.6483 7.57H49.4983C49.6383 7.57 49.7083 7.64 49.7083 7.78ZM52.0943 14H51.2643C51.1243 14 51.0543 13.93 51.0543 13.79V7.78C51.0543 7.64 51.1243 7.57 51.2643 7.57H52.0143C52.1543 7.57 52.2476 7.61667 52.2943 7.71L54.3143 11.5H54.3543V7.78C54.3543 7.64 54.4243 7.57 54.5643 7.57H55.3943C55.5343 7.57 55.6043 7.64 55.6043 7.78V13.79C55.6043 13.93 55.5343 14 55.3943 14H54.6643C54.5176 14 54.411 13.9333 54.3443 13.8L52.3443 10.08H52.3043V13.79C52.3043 13.93 52.2343 14 52.0943 14ZM56.7439 12.36V12.16C56.7439 12.02 56.8139 11.95 56.9539 11.95H57.8039C57.9439 11.95 58.0139 12.02 58.0139 12.16V12.24C58.0139 12.4933 58.0639 12.6667 58.1639 12.76C58.2639 12.8533 58.4472 12.9 58.7139 12.9H59.1839C59.4439 12.9 59.6239 12.85 59.7239 12.75C59.8306 12.65 59.8839 12.4633 59.8839 12.19V12.07C59.8839 11.8767 59.8039 11.73 59.6439 11.63C59.4906 11.5233 59.2972 11.46 59.0639 11.44C58.8306 11.42 58.5772 11.3833 58.3039 11.33C58.0372 11.27 57.7872 11.1967 57.5539 11.11C57.3206 11.0167 57.1239 10.84 56.9639 10.58C56.8106 10.3133 56.7339 9.97333 56.7339 9.56V9.21C56.7339 8.69 56.8806 8.28667 57.1739 8C57.4672 7.71333 57.8739 7.57 58.3939 7.57H59.3939C59.9206 7.57 60.3306 7.71333 60.6239 8C60.9172 8.28667 61.0639 8.69 61.0639 9.21V9.4C61.0639 9.54 60.9939 9.61 60.8539 9.61H60.0039C59.8639 9.61 59.7939 9.54 59.7939 9.4V9.34C59.7939 9.08 59.7439 8.90333 59.6439 8.81C59.5439 8.71667 59.3606 8.67 59.0939 8.67H58.7039C58.4306 8.67 58.2439 8.72333 58.1439 8.83C58.0506 8.93 58.0039 9.13 58.0039 9.43V9.62C58.0039 9.93333 58.2772 10.1133 58.8239 10.16C59.3906 10.2067 59.8939 10.32 60.3339 10.5C60.5672 10.6 60.7606 10.78 60.9139 11.04C61.0739 11.2933 61.1539 11.62 61.1539 12.02V12.36C61.1539 12.88 61.0072 13.2833 60.7139 13.57C60.4206 13.8567 60.0139 14 59.4939 14H58.4039C57.8839 14 57.4772 13.8567 57.1839 13.57C56.8906 13.2833 56.7439 12.88 56.7439 12.36ZM63.3545 14H62.5045C62.3645 14 62.2945 13.93 62.2945 13.79V7.78C62.2945 7.64 62.3645 7.57 62.5045 7.57H63.3545C63.4945 7.57 63.5645 7.64 63.5645 7.78V10.13C63.5645 10.2033 63.6045 10.24 63.6845 10.24H65.3745C65.4479 10.24 65.4845 10.2033 65.4845 10.13V7.78C65.4845 7.64 65.5545 7.57 65.6945 7.57H66.5445C66.6845 7.57 66.7545 7.64 66.7545 7.78V13.79C66.7545 13.93 66.6845 14 66.5445 14H65.6945C65.5545 14 65.4845 13.93 65.4845 13.79V11.45C65.4845 11.3767 65.4479 11.34 65.3745 11.34H63.6845C63.6045 11.34 63.5645 11.3767 63.5645 11.45V13.79C63.5645 13.93 63.4945 14 63.3545 14ZM69.8063 12.9H70.5163C70.7296 12.9 70.8796 12.8567 70.9663 12.77C71.0596 12.6767 71.1063 12.5233 71.1063 12.31V9.26C71.1063 9.04667 71.0596 8.89667 70.9663 8.81C70.8796 8.71667 70.7296 8.67 70.5163 8.67H69.8063C69.5929 8.67 69.4429 8.71667 69.3563 8.81C69.2696 8.89667 69.2263 9.04667 69.2263 9.26V12.31C69.2263 12.5233 69.2696 12.6767 69.3563 12.77C69.4429 12.8567 69.5929 12.9 69.8063 12.9ZM70.7263 14H69.6063C69.0796 14 68.6729 13.86 68.3863 13.58C68.0996 13.3 67.9563 12.8967 67.9563 12.37V9.2C67.9563 8.67333 68.0996 8.27 68.3863 7.99C68.6729 7.71 69.0796 7.57 69.6063 7.57H70.7263C71.2529 7.57 71.6596 7.71 71.9463 7.99C72.2329 8.27 72.3763 8.67333 72.3763 9.2V12.37C72.3763 12.8967 72.2329 13.3 71.9463 13.58C71.6596 13.86 71.2529 14 70.7263 14ZM74.6338 14H73.7838C73.6438 14 73.5738 13.93 73.5738 13.79V7.78C73.5738 7.64 73.6438 7.57 73.7838 7.57H76.2238C76.7438 7.57 77.1472 7.71333 77.4338 8C77.7205 8.28 77.8638 8.68 77.8638 9.2V10.16C77.8638 10.68 77.7205 11.0833 77.4338 11.37C77.1472 11.65 76.7438 11.79 76.2238 11.79H74.9638C74.8838 11.79 74.8438 11.8267 74.8438 11.9V13.79C74.8438 13.93 74.7738 14 74.6338 14ZM74.9538 10.68H76.0138C76.2272 10.68 76.3772 10.6367 76.4638 10.55C76.5505 10.4567 76.5938 10.3067 76.5938 10.1V9.26C76.5938 9.04667 76.5505 8.89667 76.4638 8.81C76.3772 8.71667 76.2272 8.67 76.0138 8.67H74.9538C74.8805 8.67 74.8438 8.70667 74.8438 8.78V10.57C74.8438 10.6433 74.8805 10.68 74.9538 10.68Z" fill="url(#paint0_linear_128_4015)"/>
<path d="M72.761 22H18.1361L20.9174 4.35028H23.8099L21.2511 19.2655C36.604 19.307 68.6891 19.365 74.2072 19.2655C79.7254 19.1661 84.1458 15.081 85.6662 13.0508C81.9949 18.6441 76.4323 22 72.761 22Z" fill="url(#paint1_linear_128_4015)"/>
<path d="M73.651 0H21.6961L21.2511 2.85876H73.651C77.1482 3.82609 83.9975 7.31364 83.5525 10.565C82.9962 14.6291 79.2136 16.0339 79.2136 16.6554C80.9566 15.9096 84.754 13.6475 86 10.565C85.021 4.6983 77.5697 0.717391 73.651 0Z" fill="url(#paint2_linear_128_4015)"/>
<path d="M17.2585 20.1143L16.966 22L0 21.3714L17.2585 20.1143Z" fill="url(#paint3_linear_128_4015)"/>
<path d="M5.26531 17.9143L17.8435 17.2857L17.551 18.8571L5.26531 17.9143Z" fill="url(#paint4_linear_128_4015)"/>
<path d="M5.85034 5.02857L19.8912 4.35028L19.5986 6.28571L5.85034 5.02857Z" fill="url(#paint5_linear_128_4015)"/>
<path d="M18.7211 10.6857L9.06803 9.74286L19.0136 8.8L18.7211 10.6857Z" fill="url(#paint6_linear_128_4015)"/>
<path d="M18.1361 15.0857L18.5488 12.5714L2.34014 13.2L18.1361 15.0857Z" fill="url(#paint7_linear_128_4015)"/>
<path d="M20.1837 2.51429L20.4762 0L1.46258 0.942857L20.1837 2.51429Z" fill="url(#paint8_linear_128_4015)"/>
<defs>
<linearGradient id="paint0_linear_128_4015" x1="52.5" y1="6" x2="52.5" y2="16" gradientUnits="userSpaceOnUse">
<stop stop-color="#D1D9E4"/>
<stop offset="0.799983" stop-color="#666A71"/>
</linearGradient>
<linearGradient id="paint1_linear_128_4015" x1="19.0931" y1="0.911882" x2="85.1408" y2="15.0581" gradientUnits="userSpaceOnUse">
<stop stop-color="#656D75"/>
<stop offset="0.321321" stop-color="#868D94"/>
<stop offset="0.633988" stop-color="#93979B"/>
<stop offset="1" stop-color="#656D75"/>
</linearGradient>
<linearGradient id="paint2_linear_128_4015" x1="19.0931" y1="0.911882" x2="85.1408" y2="15.0581" gradientUnits="userSpaceOnUse">
<stop stop-color="#656D75"/>
<stop offset="0.321321" stop-color="#868D94"/>
<stop offset="0.633988" stop-color="#93979B"/>
<stop offset="1" stop-color="#656D75"/>
</linearGradient>
<linearGradient id="paint3_linear_128_4015" x1="19.0931" y1="0.911882" x2="85.1408" y2="15.0581" gradientUnits="userSpaceOnUse">
<stop stop-color="#656D75"/>
<stop offset="0.321321" stop-color="#868D94"/>
<stop offset="0.633988" stop-color="#93979B"/>
<stop offset="1" stop-color="#656D75"/>
</linearGradient>
<linearGradient id="paint4_linear_128_4015" x1="19.0931" y1="0.911882" x2="85.1408" y2="15.0581" gradientUnits="userSpaceOnUse">
<stop stop-color="#656D75"/>
<stop offset="0.321321" stop-color="#868D94"/>
<stop offset="0.633988" stop-color="#93979B"/>
<stop offset="1" stop-color="#656D75"/>
</linearGradient>
<linearGradient id="paint5_linear_128_4015" x1="19.0931" y1="0.911882" x2="85.1408" y2="15.0581" gradientUnits="userSpaceOnUse">
<stop stop-color="#656D75"/>
<stop offset="0.321321" stop-color="#868D94"/>
<stop offset="0.633988" stop-color="#93979B"/>
<stop offset="1" stop-color="#656D75"/>
</linearGradient>
<linearGradient id="paint6_linear_128_4015" x1="19.0931" y1="0.911882" x2="85.1408" y2="15.0581" gradientUnits="userSpaceOnUse">
<stop stop-color="#656D75"/>
<stop offset="0.321321" stop-color="#868D94"/>
<stop offset="0.633988" stop-color="#93979B"/>
<stop offset="1" stop-color="#656D75"/>
</linearGradient>
<linearGradient id="paint7_linear_128_4015" x1="19.0931" y1="0.911882" x2="85.1408" y2="15.0581" gradientUnits="userSpaceOnUse">
<stop stop-color="#656D75"/>
<stop offset="0.321321" stop-color="#868D94"/>
<stop offset="0.633988" stop-color="#93979B"/>
<stop offset="1" stop-color="#656D75"/>
</linearGradient>
<linearGradient id="paint8_linear_128_4015" x1="19.0931" y1="0.911882" x2="85.1408" y2="15.0581" gradientUnits="userSpaceOnUse">
<stop stop-color="#656D75"/>
<stop offset="0.321321" stop-color="#868D94"/>
<stop offset="0.633988" stop-color="#93979B"/>
<stop offset="1" stop-color="#656D75"/>
</linearGradient>
</defs>
</svg>
