<svg width="892" height="955" viewBox="0 0 892 955" fill="none" xmlns="http://www.w3.org/2000/svg">
<g filter="url(#filter0_f_73_1073)">
<mask id="mask0_73_1073" style="mask-type:alpha" maskUnits="userSpaceOnUse" x="0" y="0" width="771" height="771">
<g clip-path="url(#clip0_73_1073)">
<line x1="1821.74" y1="13.6702" y2="13.6702" stroke="url(#paint0_radial_73_1073)"/>
<line x1="1821.74" y1="53.1806" y2="53.1806" stroke="url(#paint1_radial_73_1073)"/>
<line x1="1821.74" y1="91.0448" y2="91.0448" stroke="url(#paint2_radial_73_1073)"/>
<line x1="1821.74" y1="130.555" y2="130.555" stroke="url(#paint3_radial_73_1073)"/>
<line x1="1821.74" y1="171.712" y2="171.712" stroke="url(#paint4_radial_73_1073)"/>
<line x1="1821.74" y1="212.869" y2="212.869" stroke="url(#paint5_radial_73_1073)"/>
<line x1="1821.74" y1="254.025" y2="254.025" stroke="url(#paint6_radial_73_1073)"/>
<line x1="1821.74" y1="295.182" y2="295.182" stroke="url(#paint7_radial_73_1073)"/>
<line x1="1821.74" y1="336.339" y2="336.339" stroke="url(#paint8_radial_73_1073)"/>
<line x1="1821.74" y1="377.496" y2="377.496" stroke="url(#paint9_radial_73_1073)"/>
<line x1="1821.74" y1="418.652" y2="418.652" stroke="url(#paint10_radial_73_1073)"/>
<line x1="1821.74" y1="459.809" y2="459.809" stroke="url(#paint11_radial_73_1073)"/>
<line x1="1821.74" y1="500.966" y2="500.966" stroke="url(#paint12_radial_73_1073)"/>
<line x1="1821.74" y1="542.123" y2="542.123" stroke="url(#paint13_radial_73_1073)"/>
<line x1="1821.74" y1="583.279" y2="583.279" stroke="url(#paint14_radial_73_1073)"/>
<line x1="1821.74" y1="624.436" y2="624.436" stroke="url(#paint15_radial_73_1073)"/>
<line x1="1821.74" y1="665.593" y2="665.593" stroke="url(#paint16_radial_73_1073)"/>
<line x1="1821.74" y1="706.75" y2="706.75" stroke="url(#paint17_radial_73_1073)"/>
<line x1="1821.74" y1="747.906" y2="747.906" stroke="url(#paint18_radial_73_1073)"/>
<line x1="34.0291" x2="34.0291" y2="949.897" stroke="url(#paint19_radial_73_1073)"/>
<line x1="67.5581" x2="67.5581" y2="949.897" stroke="url(#paint20_radial_73_1073)"/>
<line x1="101.087" x2="101.087" y2="949.897" stroke="url(#paint21_radial_73_1073)"/>
<line x1="134.616" x2="134.616" y2="949.897" stroke="url(#paint22_radial_73_1073)"/>
<line x1="168.145" x2="168.145" y2="949.897" stroke="url(#paint23_radial_73_1073)"/>
<line x1="201.674" x2="201.674" y2="949.897" stroke="url(#paint24_radial_73_1073)"/>
<line x1="235.203" x2="235.203" y2="949.897" stroke="url(#paint25_radial_73_1073)"/>
<line x1="268.732" x2="268.732" y2="949.897" stroke="url(#paint26_radial_73_1073)"/>
<line x1="302.261" x2="302.261" y2="949.897" stroke="url(#paint27_radial_73_1073)"/>
<line x1="335.79" x2="335.79" y2="949.897" stroke="url(#paint28_radial_73_1073)"/>
<line x1="369.319" x2="369.319" y2="949.897" stroke="url(#paint29_radial_73_1073)"/>
<line x1="402.848" x2="402.848" y2="949.897" stroke="url(#paint30_radial_73_1073)"/>
<line x1="436.377" x2="436.377" y2="949.897" stroke="url(#paint31_radial_73_1073)"/>
<line x1="469.906" x2="469.906" y2="949.897" stroke="url(#paint32_radial_73_1073)"/>
<line x1="503.435" x2="503.435" y2="949.897" stroke="url(#paint33_radial_73_1073)"/>
<line x1="536.965" x2="536.965" y2="949.897" stroke="url(#paint34_radial_73_1073)"/>
<line x1="570.494" x2="570.494" y2="949.897" stroke="url(#paint35_radial_73_1073)"/>
<line x1="604.023" x2="604.023" y2="949.897" stroke="url(#paint36_radial_73_1073)"/>
<line x1="637.552" x2="637.552" y2="949.897" stroke="url(#paint37_radial_73_1073)"/>
<line x1="671.081" x2="671.081" y2="949.897" stroke="url(#paint38_radial_73_1073)"/>
<line x1="704.61" x2="704.61" y2="949.897" stroke="url(#paint39_radial_73_1073)"/>
<line x1="738.139" x2="738.139" y2="949.897" stroke="url(#paint40_radial_73_1073)"/>
</g>
</mask>
<g mask="url(#mask0_73_1073)">
<g filter="url(#filter1_f_73_1073)">
<circle cx="520.5" cy="520.5" r="198.5" fill="#EBFF00" fill-opacity="0.15"/>
</g>
</g>
</g>
<g clip-path="url(#clip1_73_1073)">
<path d="M630.314 344.581L616.171 362.204L627.705 371.461L641.848 353.838L630.314 344.581Z" stroke="#B0BF02" stroke-miterlimit="10"/>
<path d="M601.999 379.712L597.144 385.761L611.273 397.101L616.128 391.052L601.999 379.712Z" stroke="#B0BF02" stroke-miterlimit="10"/>
<path d="M611.805 367.643L602.072 379.771L616.128 391.052L625.861 378.924L611.805 367.643Z" stroke="#B0BF02" stroke-miterlimit="10"/>
<path d="M616.171 362.204L611.805 367.643L625.861 378.924L630.226 373.485L616.171 362.204Z" stroke="#B0BF02" stroke-miterlimit="10"/>
<path d="M598.809 384.839L601.872 381.023L600.088 372.906L604.408 367.523L611.812 367.635L615.526 363.007L592.849 344.806L584.597 355.088L589.21 378.038L598.809 384.839Z" stroke="#B0BF02" stroke-miterlimit="10"/>
<path d="M529.164 568.438L525.147 565.214L525.18 564.69C525.563 558.413 519.238 553.894 513.423 556.299L507.211 558.866L490.779 545.678L532.418 493.797L534.449 495.428L532.327 498.072L537.215 510.444L566.384 533.854C572.755 538.967 579.936 542.973 587.628 545.709L610.667 553.901C612.685 554.617 613.722 556.854 612.963 558.856L602.41 586.666C600.492 591.713 594.754 594.137 589.799 591.996L562.356 580.128C552.886 576.035 544.006 570.687 535.955 564.226L533.782 562.482L529.164 568.438Z" stroke="#B0BF02" stroke-miterlimit="10"/>
<path d="M551.637 530.58L565.323 541.564C571.694 546.677 578.875 550.683 586.568 553.419L611.669 562.342C612.561 562.656 613.03 563.639 612.709 564.532L612.038 566.415C611.721 567.303 610.753 567.769 609.862 567.463L590.437 560.725C574.626 555.432 570.343 553.844 553.4 540.246L547.914 535.843L550.922 529.886L551.637 530.58Z" stroke="#B0BF02" stroke-miterlimit="10"/>
<path d="M544.556 542.606L558.242 553.591C564.613 558.704 571.795 562.71 579.487 565.446L606.721 575.17C607.483 575.443 607.881 576.277 607.612 577.043L606.778 579.394C606.508 580.152 605.671 580.553 604.909 580.287L583.353 572.755C569.927 568.099 557.399 561.172 546.316 552.277L540.83 547.874L543.838 541.917L544.556 542.606Z" stroke="#B0BF02" stroke-miterlimit="10"/>
<path d="M538.08 553.262L541.457 555.972C553.425 565.577 566.897 573.15 581.323 578.382L603.977 586.597L603.399 588.47C602.928 589.998 601.298 590.842 599.779 590.35L580.318 584.069C564.123 578.842 549.021 570.703 535.752 560.053L534.57 559.105L538.08 553.262Z" stroke="#B0BF02" stroke-miterlimit="10"/>
<path d="M530.422 564.239L529.091 563.425C528.272 562.923 527.999 561.864 528.475 561.032L551.454 520.714C551.996 519.766 553.255 519.526 554.105 520.209L555.231 521.112C555.905 521.654 556.092 522.608 555.67 523.364L533.782 562.482L532.749 563.813C532.197 564.527 531.194 564.711 530.422 564.239Z" stroke="#B0BF02" stroke-miterlimit="10"/>
<path d="M536.31 501.742L501.811 544.728C500.839 545.939 499.067 546.132 497.855 545.16L497.468 544.85C496.257 543.878 496.062 542.105 497.034 540.894L531.533 497.908L536.31 501.742Z" stroke="#B0BF02" stroke-miterlimit="10"/>
<path d="M537.059 503.07C538.557 501.204 538.257 498.477 536.39 496.978C534.523 495.48 531.795 495.777 530.298 497.643C528.8 499.509 529.1 502.237 530.967 503.735C532.834 505.234 535.562 504.936 537.059 503.07Z" stroke="#B0BF02" stroke-miterlimit="10"/>
<path d="M525.141 550.649L525.098 550.931L524.831 551.035C523.042 551.724 521.026 551.411 519.531 550.212L505.9 539.272C504.74 538.341 504.554 536.646 505.485 535.487L505.767 535.135C506.697 533.976 508.393 533.791 509.553 534.721L523.183 545.661C524.685 546.852 525.427 548.753 525.141 550.649Z" stroke="#B0BF02" stroke-miterlimit="10"/>
<path d="M511.04 550.583L510.796 550.887C509.755 552.184 507.866 552.39 506.569 551.349L503.888 549.198C502.591 548.156 502.384 546.268 503.424 544.971L503.669 544.666C504.709 543.37 506.598 543.164 507.895 544.205L510.576 546.356C511.873 547.397 512.081 549.286 511.04 550.583Z" stroke="#B0BF02" stroke-miterlimit="10"/>
<path d="M505.978 546.682L505.892 546.789C505.527 547.244 505.596 547.914 506.056 548.283L507.001 549.042C507.456 549.407 508.126 549.338 508.495 548.879L508.581 548.771C508.946 548.316 508.877 547.646 508.417 547.277L507.472 546.519C507.012 546.15 506.347 546.223 505.978 546.682Z" stroke="#B0BF02" stroke-miterlimit="10"/>
<path d="M514.902 555.108L519.109 549.866L515.827 547.232L509.229 555.453L509.53 555.694C511.175 557.015 513.583 556.752 514.902 555.108Z" stroke="#B0BF02" stroke-miterlimit="10"/>
<path d="M517.989 551.261L528.978 560.08" stroke="#B0BF02" stroke-miterlimit="10"/>
<path d="M476.832 600.431L482.073 604.637L498.869 660.967L524.248 643.997L527.549 639.885L526.958 634.505L520.101 635.524L512.853 614.256L517.253 608.774L516.391 606.635L509.625 606.837L506.102 596.38L513.689 586.927L511.322 584.06L509.029 584.867C503.172 586.928 497.037 582.569 497.056 576.359L497.069 572.021L482.278 590.451L476.832 600.431Z" stroke="#B0BF02" stroke-miterlimit="10"/>
<path d="M512.952 478.168L506.706 485.951L510.967 489.371L517.214 481.588L512.952 478.168Z" stroke="#B0BF02" stroke-miterlimit="10"/>
<path d="M520.103 498.157L510.257 490.255L517.214 481.588L529.04 491.079L522.084 499.747L520.103 498.157Z" stroke="#B0BF02" stroke-miterlimit="10"/>
<path d="M387.176 741.289L398.921 689.033L422.433 659.737L412.66 651.894L365.636 710.485L357.751 711.879L354.411 714.994L387.176 741.289Z" stroke="#B0BF02" stroke-miterlimit="10"/>
<path d="M336.311 702.513L386.705 742.958C387.427 743.537 388.484 743.426 389.066 742.7C389.645 741.979 389.533 740.922 388.807 740.339L357.632 715.319L357.415 713.346L339.291 698.8L336.311 702.513Z" stroke="#B0BF02" stroke-miterlimit="10"/>
<path d="M335.283 702.782L334.512 695.769L353.662 671.908L358.07 675.446L404.208 617.957L426.8 636.089L365.274 712.75C362.686 715.974 357.98 716.488 354.753 713.899L342.124 703.762C340.491 702.452 338.341 701.99 336.315 702.517L335.283 702.782Z" stroke="#B0BF02" stroke-miterlimit="10"/>
<path d="M410.346 668.629L405.395 674.798L399.733 670.254C398.479 669.247 398.277 667.412 399.283 666.159L400.586 664.536C401.592 663.282 403.427 663.082 404.681 664.089L410.343 668.633L410.346 668.629Z" stroke="#B0BF02" stroke-miterlimit="10"/>
<path d="M401.053 712.109L389.961 703.207L396.244 678.069L410.325 660.523L416.216 659.88L421.913 664.451L406.505 683.65L401.053 712.109Z" stroke="#B0BF02" stroke-miterlimit="10"/>
<path d="M415.697 672.196L409.981 679.318L414.831 683.211L420.547 676.088L415.697 672.196Z" stroke="#B0BF02" stroke-miterlimit="10"/>
<path d="M353.5 682.415L342.681 695.895C342.351 696.307 341.747 696.373 341.334 696.042L340.334 695.239C339.921 694.908 339.855 694.304 340.186 693.892L351.004 680.412C351.335 680 351.939 679.934 352.351 680.265L353.352 681.068C353.765 681.399 353.831 682.003 353.5 682.415Z" stroke="#B0BF02" stroke-miterlimit="10"/>
<path d="M404.211 617.953L401.148 621.77L418.228 635.478L421.292 631.661L404.211 617.953Z" stroke="#B0BF02" stroke-miterlimit="10"/>
<path d="M428.697 589.319L405.126 618.687L419.083 629.889L442.654 600.52L428.697 589.319Z" stroke="#B0BF02" stroke-miterlimit="10"/>
<path d="M432.232 584.914L428.697 589.319L442.654 600.52L446.189 596.116L432.232 584.914Z" stroke="#B0BF02" stroke-miterlimit="10"/>
<path d="M424.891 634.55L430.9 627.063L432.486 617.713L442.505 605.229L441.948 601.408L419.088 629.892L424.891 634.55Z" stroke="#B0BF02" stroke-miterlimit="10"/>
<path d="M431.962 582.496L430.887 583.835L458.754 606.2L459.829 604.861L431.962 582.496Z" stroke="#B0BF02" stroke-miterlimit="10"/>
<path d="M459.827 604.863L460.902 603.523L433.035 581.158L431.96 582.497L459.827 604.863Z" stroke="#B0BF02" stroke-miterlimit="10"/>
<path d="M433.034 581.16L437.957 575.026L448.449 583.347L450.811 568.084L464.183 578.816L493.232 542.622L511.476 557.264L476.832 600.431L476.656 600.289C472.36 596.841 466.111 597.43 462.535 601.612L460.904 603.521L433.037 581.156L433.034 581.16Z" stroke="#B0BF02" stroke-miterlimit="10"/>
<path d="M479.478 529.204L509.692 491.559C510.753 490.236 512.688 490.025 514.011 491.087L523.148 498.42L489.09 540.857L479.953 533.524C478.63 532.462 478.414 530.531 479.478 529.204Z" stroke="#B0BF02" stroke-miterlimit="10"/>
<path d="M507.846 484.53L437.41 572.293L442.552 576.42L512.988 488.657L507.846 484.53Z" stroke="#B0BF02" stroke-miterlimit="10"/>
<path d="M529.04 491.079L532.421 493.792L490.762 545.7L462.45 580.976C457.651 586.956 448.903 587.911 442.919 583.109L435.956 577.52L439.077 573.63L440.306 574.616C441.139 575.285 442.362 575.152 443.031 574.319L468.038 543.16L474.795 548.583L484.163 536.91L489.086 540.861L529.04 491.079Z" stroke="#B0BF02" stroke-miterlimit="10"/>
<path d="M494.694 513.713L481.664 529.949C481.067 530.692 481.186 531.775 481.93 532.372L484.477 534.416L486.908 534.151L483.407 531.341C483.136 531.124 483.093 530.729 483.31 530.459L494.401 516.639L494.694 513.713Z" stroke="#B0BF02" stroke-miterlimit="10"/>
<path d="M498.095 509.475L511.126 493.239C511.722 492.496 512.806 492.378 513.549 492.974L516.096 495.019L516.363 497.45L512.862 494.64C512.591 494.422 512.197 494.466 511.98 494.736L500.889 508.555L498.095 509.475Z" stroke="#B0BF02" stroke-miterlimit="10"/>
<path d="M506.13 512.409L499.294 520.926L495.119 517.575C493.937 516.627 493.743 514.898 494.694 513.713L498.095 509.475C499.042 508.295 500.772 508.102 501.958 509.054L506.133 512.405L506.13 512.409Z" stroke="#B0BF02" stroke-miterlimit="10"/>
<path d="M503.2 512.549L498.8 518.031L497.039 516.617C496.416 516.118 496.315 515.204 496.815 514.582L499.403 511.358C499.902 510.735 500.816 510.635 501.438 511.135L503.2 512.549Z" stroke="#B0BF02" stroke-miterlimit="10"/>
<path d="M525.292 491.692L487.11 539.268L489.094 540.86L527.277 493.285L525.292 491.692Z" stroke="#B0BF02" stroke-miterlimit="10"/>
<path d="M508.675 512.397L499.837 523.409L501.822 525.002L510.659 513.99L508.675 512.397Z" stroke="#B0BF02" stroke-miterlimit="10"/>
<path d="M472.999 527.95L463.63 539.623L474.8 548.587L484.168 536.914L472.999 527.95Z" stroke="#B0BF02" stroke-miterlimit="10"/>
<path d="M470.582 537.113L469.186 538.851L474.346 542.992L475.741 541.253L470.582 537.113Z" stroke="#B0BF02" stroke-miterlimit="10"/>
<path d="M470.582 537.113L473.002 527.945" stroke="#B0BF02" stroke-miterlimit="10"/>
<path d="M475.741 541.253L484.171 536.909" stroke="#B0BF02" stroke-miterlimit="10"/>
<path d="M469.186 538.851L463.63 539.623" stroke="#B0BF02" stroke-miterlimit="10"/>
<path d="M474.346 542.992L474.8 548.587" stroke="#B0BF02" stroke-miterlimit="10"/>
<path d="M435.944 567.898L434.033 566.363L428.196 573.636C427.755 574.185 427.84 574.995 428.394 575.439L434.009 579.945L439.508 573.094L440.648 571.673L444.969 566.289L440.265 562.514L435.944 567.898Z" stroke="#B0BF02" stroke-width="1.3682" stroke-miterlimit="10"/>
<path d="M434.037 566.367L442.286 556.089L445.589 558.74L511.311 476.851L512.952 478.168L443.302 564.951L440.265 562.514L435.944 567.897L434.037 566.367Z" stroke="#B0BF02" stroke-width="1.3682" stroke-miterlimit="10"/>
<path d="M435.675 524.188L420.743 540.487L420.674 547.596L428.51 553.884L442.653 536.261L440.254 526.614L437.363 524.294L435.675 524.188Z" stroke="#B0BF02" stroke-width="1.3682" stroke-miterlimit="10"/>
<path d="M432.466 568.324L425.805 555.652L441.734 535.806L439.575 527.311L435.683 524.187L488.342 468.157C491.288 465.023 496.151 464.684 499.507 467.376L504.288 471.214L511.316 476.854L445.593 558.744L442.286 556.089L432.466 568.324V568.324Z" stroke="#B0BF02" stroke-width="1.3682" stroke-miterlimit="10"/>
<path d="M505.95 472.548L494.911 486.303L500.861 491.078L511.9 477.323L505.95 472.548Z" stroke="#B0BF02" stroke-width="1.3682" stroke-miterlimit="10"/>
<path d="M504.726 482.873C505.312 482.143 505.195 481.075 504.464 480.489C503.734 479.902 502.666 480.019 502.08 480.749C501.494 481.479 501.611 482.547 502.342 483.133C503.073 483.72 504.14 483.603 504.726 482.873Z" stroke="#B0BF02" stroke-width="1.3682" stroke-miterlimit="10"/>
<path d="M429.851 530.582L439.629 538.429" stroke="#B0BF02" stroke-width="1.3682" stroke-miterlimit="10"/>
<path d="M448.226 546.021L443.068 552.447L446.23 554.985L451.388 548.558L448.226 546.021Z" stroke="#B0BF02" stroke-width="1.3682" stroke-miterlimit="10"/>
<path d="M448.015 543.529L454.872 534.986C455.833 533.788 457.579 533.601 458.773 534.56L462.558 537.597L452.229 550.468L448.444 547.43C447.25 546.472 447.057 544.722 448.015 543.529Z" stroke="#B0BF02" stroke-width="1.3682" stroke-miterlimit="10"/>
<path d="M455.864 542.558C456.45 541.828 456.333 540.761 455.602 540.174C454.872 539.588 453.804 539.704 453.218 540.435C452.632 541.165 452.749 542.232 453.48 542.819C454.211 543.405 455.278 543.289 455.864 542.558Z" stroke="#B0BF02" stroke-width="1.3682" stroke-miterlimit="10"/>
<path d="M440.977 541.035L429.82 554.936L434.876 558.994L446.033 545.093L440.977 541.035Z" stroke="#B0BF02" stroke-width="1.3682" stroke-miterlimit="10"/>
<path d="M442.888 542.569L431.732 556.47L432.969 557.463L444.125 543.562L442.888 542.569Z" stroke="#B0BF02" stroke-width="1.3682" stroke-miterlimit="10"/>
<path d="M436.208 548.798C438.505 545.936 438.045 541.753 435.182 539.455C432.318 537.156 428.135 537.613 425.838 540.475C423.541 543.337 424.001 547.52 426.864 549.818C429.728 552.116 433.911 551.66 436.208 548.798Z" stroke="#B0BF02" stroke-width="1.3682" stroke-miterlimit="10"/>
<path d="M435.13 547.932C436.949 545.666 436.585 542.353 434.317 540.532C432.049 538.712 428.736 539.074 426.916 541.34C425.097 543.607 425.461 546.92 427.729 548.741C429.997 550.561 433.311 550.199 435.13 547.932Z" stroke="#B0BF02" stroke-width="1.3682" stroke-miterlimit="10"/>
<path d="M432.149 545.54C432.647 544.919 432.548 544.011 431.926 543.512C431.304 543.013 430.396 543.112 429.898 543.733C429.399 544.354 429.499 545.262 430.12 545.761C430.742 546.26 431.65 546.161 432.149 545.54Z" stroke="#B0BF02" stroke-width="1.3682" stroke-miterlimit="10"/>
<path d="M501.492 478.103L457.252 533.226C455.216 535.763 451.511 536.164 448.977 534.129L447.245 532.74C445.626 531.44 445.366 529.079 446.665 527.461L490.144 473.287C491.301 471.844 493.415 471.614 494.858 472.772L501.495 478.099L501.492 478.103Z" stroke="#B0BF02" stroke-width="1.3682" stroke-miterlimit="10"/>
<path d="M499.393 648.591L489.309 612.095C488.841 610.407 489.788 608.647 491.456 608.109L496.536 606.461C500.45 605.192 504.669 607.222 506.118 611.074L515.635 636.337C516.862 639.594 515.498 643.257 512.433 644.912L502.882 650.079C501.515 650.823 499.805 650.094 499.393 648.591Z" stroke="#B0BF02" stroke-width="1.3682" stroke-miterlimit="10"/>
<path d="M507.717 594.359L491.896 581.661" stroke="#B0BF02" stroke-width="1.3682" stroke-miterlimit="10"/>
<path d="M481.267 581.537C482.293 580.259 482.087 578.391 480.809 577.365C479.53 576.339 477.662 576.543 476.636 577.821C475.611 579.099 475.816 580.967 477.094 581.993C478.373 583.019 480.241 582.815 481.267 581.537Z" stroke="#B0BF02" stroke-width="1.3682" stroke-miterlimit="10"/>
<path d="M467.677 587.189C468.963 585.586 468.706 583.243 467.102 581.956C465.498 580.669 463.155 580.925 461.869 582.528C460.582 584.13 460.84 586.473 462.444 587.76C464.047 589.047 466.39 588.792 467.677 587.189Z" stroke="#B0BF02" stroke-width="1.3682" stroke-miterlimit="10"/>
<path d="M471.401 562.439L452.286 586.257L442.895 578.72L462.011 554.903C463.871 552.584 467.152 551.744 470.442 552.74L471.265 552.991L471.688 553.74C473.372 556.737 473.262 560.121 471.401 562.439Z" stroke="#B0BF02" stroke-width="1.3682" stroke-miterlimit="10"/>
<path d="M452.283 586.261C453.072 585.277 451.61 582.793 449.017 580.711C446.424 578.63 443.682 577.741 442.892 578.725C442.102 579.709 443.564 582.193 446.157 584.275C448.751 586.356 451.493 587.245 452.283 586.261Z" stroke="#B0BF02" stroke-width="1.3682" stroke-miterlimit="10"/>
<path d="M450.856 588.039C451.646 587.055 450.184 584.57 447.591 582.489C444.997 580.408 442.255 579.518 441.465 580.502C440.676 581.486 442.138 583.971 444.731 586.052C447.324 588.133 450.066 589.023 450.856 588.039Z" stroke="#B0BF02" stroke-width="1.3682" stroke-miterlimit="10"/>
<path d="M449.426 589.82C450.216 588.836 448.754 586.352 446.161 584.27C443.568 582.189 440.825 581.3 440.036 582.284C439.246 583.268 440.708 585.752 443.301 587.834C445.894 589.915 448.637 590.804 449.426 589.82Z" stroke="#B0BF02" stroke-width="1.3682" stroke-miterlimit="10"/>
<path d="M513.116 475.807L511.9 477.323L531.759 493.262L532.976 491.746L513.116 475.807Z" stroke="#B0BF02" stroke-width="1.3682" stroke-miterlimit="10"/>
<path d="M515.737 477.911L514.52 479.426L517.85 482.098L519.066 480.582L515.737 477.911Z" stroke="#B0BF02" stroke-width="1.3682" stroke-miterlimit="10"/>
<path d="M509.808 473.153L513.567 476.169L524.848 485.223L536.129 494.277L539.883 497.29L540.669 496.311L525.634 484.244L510.594 472.174L509.808 473.153Z" stroke="#B0BF02" stroke-width="0.8" stroke-miterlimit="10"/>
<path d="M510.817 472.353L514.516 475.322L525.634 484.244L536.747 493.163L540.45 496.135L541.239 495.152L526.423 483.261L511.606 471.37L510.817 472.353Z" stroke="#B0BF02" stroke-width="0.8" stroke-miterlimit="10"/>
<path d="M511.898 471.604L515.524 474.514L526.423 483.261L537.317 492.004L540.942 494.914L541.728 493.935L527.208 482.282L512.684 470.626L511.898 471.604Z" stroke="#B0BF02" stroke-width="0.8" stroke-miterlimit="10"/>
<path d="M512.98 470.864L516.533 473.715L527.208 482.282L537.879 490.846L541.436 493.701L542.221 492.722L527.994 481.304L513.766 469.885L512.98 470.864Z" stroke="#B0BF02" stroke-width="0.8" stroke-miterlimit="10"/>
<path d="M514.105 470.157L517.576 472.943L527.994 481.304L538.411 489.664L541.878 492.446L542.667 491.463L528.783 480.32L514.894 469.174L514.105 470.157Z" stroke="#B0BF02" stroke-width="0.8" stroke-miterlimit="10"/>
<path d="M515.191 469.412L518.584 472.136L528.783 480.32L538.977 488.502L542.37 491.225L543.156 490.247L529.568 479.342L515.976 468.433L515.191 469.412Z" stroke="#B0BF02" stroke-width="0.8" stroke-miterlimit="10"/>
<path d="M516.294 468.688L519.611 471.35L529.568 479.342L539.526 487.333L542.838 489.992L543.624 489.013L530.354 478.363L517.08 467.709L516.294 468.688Z" stroke="#B0BF02" stroke-width="0.8" stroke-miterlimit="10"/>
<path d="M517.445 468.002L520.671 470.592L530.354 478.363L540.037 486.134L543.258 488.72L544.047 487.737L531.143 477.38L518.234 467.019L517.445 468.002Z" stroke="#B0BF02" stroke-width="0.8" stroke-miterlimit="10"/>
<path d="M518.555 467.27L521.743 469.828L531.305 477.503L540.868 485.177L544.051 487.732L544.83 486.762L532.084 476.533L519.334 466.3L518.555 467.27Z" stroke="#B0BF02" stroke-width="0.8" stroke-miterlimit="10"/>
<path d="M522.935 462.922L519.937 466.657L543.693 485.723L546.691 481.988L522.935 462.922Z" stroke="#B0BF02" stroke-width="1.3682" stroke-miterlimit="10"/>
<path d="M536.587 477.619L535.429 479.062L536.971 480.3L538.129 478.857L536.587 477.619Z" stroke="#B0BF02" stroke-width="1.3682" stroke-miterlimit="10"/>
<path d="M524.938 463.005C523.518 464.774 523.841 467.39 525.658 468.849L533.159 474.868L540.659 480.888C542.476 482.346 545.1 482.095 546.52 480.326L609.376 402.008L598.585 393.348L587.793 384.687L524.938 463.005V463.005Z" stroke="#B0BF02" stroke-width="1.3682" stroke-miterlimit="10"/>
<path d="M586.304 383.498L520.881 465.015L522.647 466.432L588.069 384.915L586.304 383.498Z" stroke="#B0BF02" stroke-width="1.3682" stroke-miterlimit="10"/>
<path d="M584.521 382.068L519.098 463.584L520.864 465.001L586.286 383.485L584.521 382.068Z" stroke="#B0BF02" stroke-width="1.3682" stroke-miterlimit="10"/>
<path d="M520.075 458.354L517.139 462.012L519.098 463.584L522.034 459.926L520.075 458.354Z" stroke="#B0BF02" stroke-width="1.3682" stroke-miterlimit="10"/>
<path d="M524.24 453.164L521.305 456.821L523.264 458.394L526.199 454.736L524.24 453.164Z" stroke="#B0BF02" stroke-width="1.3682" stroke-miterlimit="10"/>
<path d="M528.406 447.974L525.471 451.631L527.429 453.203L530.365 449.546L528.406 447.974Z" stroke="#B0BF02" stroke-width="1.3682" stroke-miterlimit="10"/>
<path d="M532.572 442.783L529.636 446.441L531.595 448.013L534.531 444.355L532.572 442.783Z" stroke="#B0BF02" stroke-width="1.3682" stroke-miterlimit="10"/>
<path d="M536.741 437.589L533.805 441.246L535.764 442.818L538.7 439.161L536.741 437.589Z" stroke="#B0BF02" stroke-width="1.3682" stroke-miterlimit="10"/>
<path d="M540.906 432.398L537.971 436.056L539.93 437.628L542.865 433.97L540.906 432.398Z" stroke="#B0BF02" stroke-width="1.3682" stroke-miterlimit="10"/>
<path d="M545.072 427.208L542.136 430.866L544.095 432.438L547.031 428.78L545.072 427.208Z" stroke="#B0BF02" stroke-width="1.3682" stroke-miterlimit="10"/>
<path d="M549.237 422.018L546.302 425.675L548.261 427.248L551.196 423.59L549.237 422.018Z" stroke="#B0BF02" stroke-width="1.3682" stroke-miterlimit="10"/>
<path d="M553.403 416.827L550.467 420.485L552.426 422.057L555.362 418.4L553.403 416.827Z" stroke="#B0BF02" stroke-width="1.3682" stroke-miterlimit="10"/>
<path d="M557.568 411.637L554.633 415.295L556.592 416.867L559.527 413.209L557.568 411.637Z" stroke="#B0BF02" stroke-width="1.3682" stroke-miterlimit="10"/>
<path d="M561.734 406.447L558.799 410.104L560.757 411.677L563.693 408.019L561.734 406.447Z" stroke="#B0BF02" stroke-width="1.3682" stroke-miterlimit="10"/>
<path d="M565.9 401.257L562.964 404.914L564.923 406.486L567.859 402.829L565.9 401.257Z" stroke="#B0BF02" stroke-width="1.3682" stroke-miterlimit="10"/>
<path d="M570.069 396.062L567.133 399.72L569.092 401.292L572.028 397.634L570.069 396.062Z" stroke="#B0BF02" stroke-width="1.3682" stroke-miterlimit="10"/>
<path d="M574.234 390.872L571.299 394.529L573.258 396.101L576.193 392.444L574.234 390.872Z" stroke="#B0BF02" stroke-width="1.3682" stroke-miterlimit="10"/>
<path d="M578.4 385.681L575.464 389.339L577.423 390.911L580.359 387.254L578.4 385.681Z" stroke="#B0BF02" stroke-width="1.3682" stroke-miterlimit="10"/>
<path d="M582.565 380.491L579.63 384.149L581.589 385.721L584.524 382.063L582.565 380.491Z" stroke="#B0BF02" stroke-width="1.3682" stroke-miterlimit="10"/>
<path d="M609.651 402.237L544.229 483.753L545.994 485.17L611.417 403.654L609.651 402.237Z" stroke="#B0BF02" stroke-width="1.3682" stroke-miterlimit="10"/>
<path d="M611.434 403.667L546.012 485.184L547.777 486.601L613.2 405.084L611.434 403.667Z" stroke="#B0BF02" stroke-width="1.3682" stroke-miterlimit="10"/>
<path d="M550.713 482.943L547.777 486.601L549.736 488.173L552.672 484.515L550.713 482.943Z" stroke="#B0BF02" stroke-width="1.3682" stroke-miterlimit="10"/>
<path d="M554.878 477.753L551.943 481.41L553.902 482.983L556.837 479.325L554.878 477.753Z" stroke="#B0BF02" stroke-width="1.3682" stroke-miterlimit="10"/>
<path d="M559.044 472.562L556.108 476.22L558.067 477.792L561.003 474.135L559.044 472.562Z" stroke="#B0BF02" stroke-width="1.3682" stroke-miterlimit="10"/>
<path d="M563.209 467.372L560.274 471.03L562.233 472.602L565.168 468.944L563.209 467.372Z" stroke="#B0BF02" stroke-width="1.3682" stroke-miterlimit="10"/>
<path d="M567.379 462.178L564.443 465.835L566.402 467.407L569.337 463.75L567.379 462.178Z" stroke="#B0BF02" stroke-width="1.3682" stroke-miterlimit="10"/>
<path d="M571.544 456.987L568.609 460.645L570.567 462.217L573.503 458.559L571.544 456.987Z" stroke="#B0BF02" stroke-width="1.3682" stroke-miterlimit="10"/>
<path d="M575.71 451.797L572.774 455.455L574.733 457.027L577.668 453.369L575.71 451.797Z" stroke="#B0BF02" stroke-width="1.3682" stroke-miterlimit="10"/>
<path d="M579.875 446.607L576.94 450.264L578.899 451.837L581.834 448.179L579.875 446.607Z" stroke="#B0BF02" stroke-width="1.3682" stroke-miterlimit="10"/>
<path d="M584.041 441.416L581.105 445.074L583.064 446.646L586 442.989L584.041 441.416Z" stroke="#B0BF02" stroke-width="1.3682" stroke-miterlimit="10"/>
<path d="M588.206 436.226L585.271 439.884L587.23 441.456L590.165 437.798L588.206 436.226Z" stroke="#B0BF02" stroke-width="1.3682" stroke-miterlimit="10"/>
<path d="M592.372 431.036L589.436 434.693L591.395 436.266L594.331 432.608L592.372 431.036Z" stroke="#B0BF02" stroke-width="1.3682" stroke-miterlimit="10"/>
<path d="M596.537 425.846L593.602 429.503L595.561 431.075L598.496 427.418L596.537 425.846Z" stroke="#B0BF02" stroke-width="1.3682" stroke-miterlimit="10"/>
<path d="M600.707 420.651L597.771 424.309L599.73 425.881L602.665 422.223L600.707 420.651Z" stroke="#B0BF02" stroke-width="1.3682" stroke-miterlimit="10"/>
<path d="M604.872 415.461L601.937 419.118L603.896 420.69L606.831 417.033L604.872 415.461Z" stroke="#B0BF02" stroke-width="1.3682" stroke-miterlimit="10"/>
<path d="M609.038 410.27L606.102 413.928L608.061 415.5L610.997 411.842L609.038 410.27Z" stroke="#B0BF02" stroke-width="1.3682" stroke-miterlimit="10"/>
<path d="M613.203 405.08L610.268 408.738L612.227 410.31L615.162 406.652L613.203 405.08Z" stroke="#B0BF02" stroke-width="1.3682" stroke-miterlimit="10"/>
<path d="M540.581 474.085C542.157 472.122 541.842 469.252 539.877 467.676C537.913 466.099 535.043 466.412 533.468 468.376C531.892 470.339 532.207 473.208 534.172 474.785C536.136 476.362 539.006 476.048 540.581 474.085Z" stroke="#B0BF02" stroke-miterlimit="10"/>
<path d="M529.627 462.407L527.271 465.343L544.879 479.475L547.236 476.539L529.627 462.407Z" stroke="#B0BF02" stroke-miterlimit="10"/>
<path d="M533.277 453.195L529.752 457.587L551.051 474.681L554.575 470.289L533.277 453.195Z" stroke="#B0BF02" stroke-miterlimit="10"/>
<path d="M538.755 446.369L535.23 450.761L556.529 467.855L560.054 463.463L538.755 446.369Z" stroke="#B0BF02" stroke-miterlimit="10"/>
<path d="M544.237 439.539L540.712 443.931L562.011 461.025L565.536 456.633L544.237 439.539Z" stroke="#B0BF02" stroke-miterlimit="10"/>
<path d="M549.715 432.713L546.19 437.105L567.489 454.199L571.014 449.807L549.715 432.713Z" stroke="#B0BF02" stroke-miterlimit="10"/>
<path d="M555.197 425.883L551.672 430.275L572.971 447.368L576.495 442.977L555.197 425.883Z" stroke="#B0BF02" stroke-miterlimit="10"/>
<path d="M560.675 419.057L557.15 423.449L578.449 440.543L581.974 436.151L560.675 419.057Z" stroke="#B0BF02" stroke-miterlimit="10"/>
<path d="M566.157 412.227L562.632 416.619L583.931 433.712L587.456 429.32L566.157 412.227Z" stroke="#B0BF02" stroke-miterlimit="10"/>
<path d="M571.635 405.401L568.11 409.793L589.409 426.886L592.934 422.495L571.635 405.401Z" stroke="#B0BF02" stroke-miterlimit="10"/>
<path d="M577.117 398.571L573.592 402.962L594.891 420.056L598.416 415.664L577.117 398.571Z" stroke="#B0BF02" stroke-miterlimit="10"/>
<path d="M582.595 391.745L579.071 396.136L600.369 413.23L603.894 408.838L582.595 391.745Z" stroke="#B0BF02" stroke-miterlimit="10"/>
<path d="M588.077 384.914L584.552 389.306L605.851 406.4L609.376 402.008L588.077 384.914Z" stroke="#B0BF02" stroke-miterlimit="10"/>
<path d="M588.772 382.896L587.514 384.463L610.291 402.742L611.548 401.176L588.772 382.896Z" stroke="#B0BF02" stroke-miterlimit="10"/>
<path d="M590.65 380.556L588.768 382.9L611.545 401.18L613.426 398.836L590.65 380.556Z" stroke="#B0BF02" stroke-miterlimit="10"/>
<path d="M603.326 392.65L599.911 389.909L598.967 391.085L599.182 393.827L610.291 402.742L612.489 400.004L607.368 395.894L604.019 400.067L599.988 396.817L603.326 392.65Z" stroke="#B0BF02" stroke-miterlimit="10"/>
<path d="M613.43 398.832L611.114 401.716L612.781 403.054L615.096 400.169L613.43 398.832Z" stroke="#B0BF02" stroke-miterlimit="10"/>
<path d="M599.713 387.823L600.815 386.449L590.188 377.92L585.537 355.518L593.393 345.73L617.978 365.461L619.549 363.504L590.604 340.273C588.28 338.408 584.881 338.779 583.017 341.101L582.256 342.05C581.246 343.308 580.851 344.953 581.185 346.534L588.08 379.446L590.184 381.136L590.653 380.552L599.713 387.823Z" stroke="#B0BF02" stroke-miterlimit="10"/>
<path d="M598.106 382.503L592.298 377.842L592.724 374.161L588.216 356.299L590.928 352.92L597.096 357.871L599.453 354.935L606.885 360.899L612.383 365.312L611.243 366.733L608.233 366.972L600.061 377.155L600.36 379.844L598.106 382.503Z" stroke="#B0BF02" stroke-miterlimit="10"/>
<path d="M598.799 352.116L597.589 353.622C596.886 354.498 595.609 354.638 594.733 353.934L591.395 351.255L592.604 349.749C593.307 348.873 594.584 348.733 595.461 349.437L598.799 352.116Z" stroke="#B0BF02" stroke-miterlimit="10"/>
<path d="M593.206 374.872L592.969 373.355L595.57 374.998L607.75 359.822L614.034 364.866L611.085 368.54L609.145 368.748L601.8 377.901L601.999 379.712L600.052 382.138L594.639 377.794L593.206 374.872Z" stroke="#B0BF02" stroke-miterlimit="10"/>
<path d="M619.312 398.322L618.254 399.64C617.427 400.671 615.925 400.835 614.894 400.007L611.273 397.101L615.321 392.056L618.938 394.959C619.969 395.787 620.139 397.292 619.312 398.322Z" stroke="#B0BF02" stroke-miterlimit="10"/>
<path d="M616.87 397.449C617.239 396.989 617.165 396.317 616.705 395.948C616.244 395.578 615.572 395.652 615.203 396.112C614.834 396.572 614.907 397.244 615.368 397.613C615.828 397.983 616.5 397.909 616.87 397.449Z" stroke="#B0BF02" stroke-miterlimit="10"/>
<path d="M628.513 372.109L634.706 367.904L639.418 371.686L635.118 377.044L636.403 378.074L632.589 382.827C632.185 383.329 631.45 383.409 630.947 383.006L625.857 378.921L630.222 373.481L628.513 372.109V372.109Z" stroke="#B0BF02" stroke-miterlimit="10"/>
<path d="M635.766 376.236L634.112 374.909L628.92 381.379" stroke="#B0BF02" stroke-miterlimit="10"/>
<path d="M636.62 375.172L633.901 372.989L627.854 380.524" stroke="#B0BF02" stroke-miterlimit="10"/>
<path d="M626.828 379.7L635.676 368.675" stroke="#B0BF02" stroke-miterlimit="10"/>
<path d="M634.571 341.68L630.314 344.581L641.848 353.838L643.755 349.051L634.571 341.68Z" stroke="#B0BF02" stroke-miterlimit="10"/>
<path d="M642.426 331.892L634.571 341.68L643.755 349.051L651.611 339.263L642.426 331.892Z" stroke="#B0BF02" stroke-miterlimit="10"/>
<path d="M656.813 311.563L641.257 330.946L653.036 340.4L668.593 321.017L656.813 311.563Z" stroke="#B0BF02" stroke-miterlimit="10"/>
<path d="M666.882 300.742L657.655 312.239L667.746 320.337L676.973 308.841L666.882 300.742Z" stroke="#B0BF02" stroke-miterlimit="10"/>
<path d="M676.484 289.553L667.257 301.05L676.592 308.542L685.819 297.045L676.484 289.553Z" stroke="#B0BF02" stroke-miterlimit="10"/>
<path d="M695.268 288.896L684.829 301.904L671.958 291.575L682.398 278.567C683.422 277.292 685.287 277.088 686.563 278.112L694.807 284.728C696.09 285.751 696.295 287.617 695.268 288.896Z" stroke="#B0BF02" stroke-miterlimit="10"/>
<path d="M678.76 308.348L677.844 309.49C677.382 310.065 676.538 310.157 675.962 309.695L666.275 301.921C665.7 301.459 665.607 300.615 666.069 300.04L666.985 298.898C667.447 298.322 668.291 298.23 668.866 298.692L678.553 306.467C679.132 306.925 679.225 307.768 678.76 308.348Z" stroke="#B0BF02" stroke-miterlimit="10"/>
<path d="M682.299 303.939L681.382 305.081C680.92 305.656 680.077 305.748 679.501 305.286L669.814 297.512C669.238 297.05 669.146 296.206 669.607 295.631L670.524 294.489C670.986 293.913 671.829 293.821 672.405 294.283L682.092 302.058C682.668 302.52 682.76 303.364 682.299 303.939Z" stroke="#B0BF02" stroke-miterlimit="10"/>
<path d="M684.44 280.749L675.936 291.344C675.699 291.64 675.265 291.687 674.969 291.45C674.672 291.212 674.625 290.778 674.862 290.482L683.366 279.887C683.604 279.591 684.037 279.543 684.334 279.781C684.633 280.015 684.681 280.448 684.44 280.749Z" stroke="#B0BF02" stroke-miterlimit="10"/>
<path d="M686.79 282.635L678.286 293.23C678.049 293.526 677.615 293.573 677.319 293.335C677.022 293.098 676.975 292.664 677.212 292.368L685.716 281.773C685.953 281.476 686.387 281.429 686.683 281.667C686.983 281.901 687.031 282.334 686.79 282.635Z" stroke="#B0BF02" stroke-miterlimit="10"/>
<path d="M606.984 444.994L600.3 439.629L600.546 432.705L591.95 425.806L582.051 438.14L572.149 450.478L580.745 457.377L587.452 455.638L594.136 461.002L594.904 460.045L600.635 464.644L599.16 466.482L602.76 469.371L603.763 468.122L608.982 472.311L608.038 473.487L611.196 476.021L612.14 474.845L617.501 479.147L616.498 480.397L619.879 483.11L620.706 482.08L625.994 486.324L625.109 487.427L628.489 490.14L629.433 488.964L631.418 490.557L637.665 482.774L643.908 474.995L641.923 473.402L642.867 472.225L639.487 469.512L638.601 470.615L633.313 466.371L634.14 465.341L630.759 462.628L629.756 463.877L624.395 459.574L625.339 458.398L622.182 455.864L621.238 457.04L616.018 452.851L617.021 451.602L613.421 448.713L611.947 450.55L606.216 445.951L606.984 444.994Z" stroke="#B0BF02" stroke-miterlimit="10"/>
<path d="M650.89 482.751L640.833 495.283C640.254 496.004 639.194 496.12 638.472 495.54L631.749 490.145L643.908 474.995L650.631 480.39C651.353 480.969 651.473 482.026 650.89 482.751Z" stroke="#B0BF02" stroke-miterlimit="10"/>
<path d="M587.102 450.204L586.933 450.415C585.668 451.99 583.369 452.241 581.793 450.976L575.68 446.07L580.424 440.158L586.537 445.064C588.114 446.33 588.366 448.629 587.102 450.204Z" stroke="#B0BF02" stroke-miterlimit="10"/>
<path d="M595.205 440.107L595.037 440.317C593.772 441.893 591.473 442.144 589.896 440.879L583.783 435.973L588.528 430.061L594.641 434.967C596.217 436.233 596.47 438.532 595.205 440.107Z" stroke="#B0BF02" stroke-miterlimit="10"/>
<path d="M585.674 448.903L585.357 449.298C584.933 449.826 584.156 449.915 583.623 449.488L581.204 447.546L583.062 445.233L585.48 447.174C586.009 447.598 586.098 448.375 585.674 448.903Z" stroke="#B0BF02" stroke-miterlimit="10"/>
<path d="M583.844 447.76C584.602 446.816 584.45 445.437 583.506 444.679C582.562 443.921 581.182 444.072 580.425 445.015C579.668 445.959 579.819 447.338 580.763 448.096C581.708 448.854 583.087 448.703 583.844 447.76Z" stroke="#B0BF02" stroke-miterlimit="10"/>
<path d="M593.774 438.81L593.457 439.205C593.033 439.733 592.256 439.822 591.723 439.395L589.305 437.454L591.162 435.14L593.58 437.081C594.112 437.5 594.202 438.278 593.774 438.81Z" stroke="#B0BF02" stroke-miterlimit="10"/>
<path d="M591.945 437.667C592.702 436.723 592.551 435.344 591.606 434.586C590.662 433.828 589.283 433.979 588.525 434.922C587.768 435.866 587.919 437.245 588.864 438.003C589.808 438.761 591.187 438.61 591.945 437.667Z" stroke="#B0BF02" stroke-miterlimit="10"/>
<path d="M579.606 456.463L581.902 454.36C584.578 451.906 588.137 450.647 591.762 450.874L592.192 450.902C595.233 451.091 597.545 448.21 596.702 445.282L596.582 444.868C595.576 441.379 596.034 437.631 597.851 434.487L599.408 431.791" stroke="#B0BF02" stroke-miterlimit="10"/>
<path d="M602.766 454.765L602.682 455.001C601.355 458.644 602.501 462.733 605.525 465.16L630.037 484.832C631.068 485.66 632.578 485.495 633.405 484.465L635.896 481.361L638.387 478.257C639.214 477.227 639.048 475.717 638.017 474.89L613.505 455.217C610.481 452.79 606.24 452.556 602.971 454.64L602.766 454.765Z" stroke="#B0BF02" stroke-miterlimit="10"/>
<path d="M629.702 484.564L637.685 474.617" stroke="#B0BF02" stroke-miterlimit="10"/>
<path d="M637.83 482.568L633.672 487.749L641.705 494.196L645.863 489.015L637.83 482.568Z" stroke="#B0BF02" stroke-miterlimit="10"/>
<path d="M636.976 483.632L634.76 486.393L641.273 491.619L643.488 488.859L636.976 483.632Z" stroke="#B0BF02" stroke-miterlimit="10"/>
<path d="M642.378 476.901L639.577 480.391L647.61 486.838L650.411 483.348L642.378 476.901Z" stroke="#B0BF02" stroke-miterlimit="10"/>
<path d="M629.693 470.433L623.888 477.667L629.326 482.031L635.132 474.798L629.693 470.433Z" stroke="#B0BF02" stroke-miterlimit="10"/>
<path d="M620.951 463.417L615.146 470.651L620.584 475.015L626.39 467.782L620.951 463.417Z" stroke="#B0BF02" stroke-miterlimit="10"/>
<path d="M617.643 460.762L611.838 467.996L606.399 463.631L606.739 462.626C607.54 460.255 609.156 458.242 611.301 456.942L612.208 456.393L617.647 460.758L617.643 460.762Z" stroke="#B0BF02" stroke-miterlimit="10"/>
<path d="M607.946 464.872L613.751 457.638" stroke="#B0BF02" stroke-miterlimit="10"/>
<path d="M604.394 453.897L602.766 454.765L602.272 456.542L599.024 453.935C598.38 453.418 598.28 452.477 598.793 451.838L599.045 451.524C599.562 450.88 600.503 450.782 601.143 451.295L604.39 453.902L604.394 453.897Z" stroke="#B0BF02" stroke-miterlimit="10"/>
<path d="M642.375 476.905L640.566 479.159L647.078 484.386L648.887 482.132L642.375 476.905Z" stroke="#B0BF02" stroke-miterlimit="10"/>
<path d="M505.292 564.97L498.26 573.732L505.73 579.728C508.926 582.293 513.59 581.78 516.15 578.59C516.526 578.122 516.157 577.438 515.56 577.495L513.082 577.722C508.812 578.114 505.148 574.715 505.21 570.431L505.292 564.97Z" stroke="#B0BF02" stroke-miterlimit="10"/>
<path d="M498.492 476.182L454.486 531.013L457.249 533.23L501.254 478.399L498.492 476.182Z" stroke="#B0BF02" stroke-miterlimit="10"/>
</g>
<g filter="url(#filter2_f_73_1073)">
<circle cx="535" cy="501" r="304" fill="#EBFF00" fill-opacity="0.04"/>
</g>
<defs>
<filter id="filter0_f_73_1073" x="320" y="320" width="401" height="401" filterUnits="userSpaceOnUse" color-interpolation-filters="sRGB">
<feFlood flood-opacity="0" result="BackgroundImageFix"/>
<feBlend mode="normal" in="SourceGraphic" in2="BackgroundImageFix" result="shape"/>
<feGaussianBlur stdDeviation="1" result="effect1_foregroundBlur_73_1073"/>
</filter>
<filter id="filter1_f_73_1073" x="262" y="262" width="517" height="517" filterUnits="userSpaceOnUse" color-interpolation-filters="sRGB">
<feFlood flood-opacity="0" result="BackgroundImageFix"/>
<feBlend mode="normal" in="SourceGraphic" in2="BackgroundImageFix" result="shape"/>
<feGaussianBlur stdDeviation="30" result="effect1_foregroundBlur_73_1073"/>
</filter>
<filter id="filter2_f_73_1073" x="81" y="47" width="908" height="908" filterUnits="userSpaceOnUse" color-interpolation-filters="sRGB">
<feFlood flood-opacity="0" result="BackgroundImageFix"/>
<feBlend mode="normal" in="SourceGraphic" in2="BackgroundImageFix" result="shape"/>
<feGaussianBlur stdDeviation="75" result="effect1_foregroundBlur_73_1073"/>
</filter>
<radialGradient id="paint0_radial_73_1073" cx="0" cy="0" r="1" gradientUnits="userSpaceOnUse" gradientTransform="translate(910.872 12.6702) rotate(-90) scale(0.5 910.872)">
<stop offset="0.645833" stop-color="#D01027" stop-opacity="0"/>
<stop offset="1" stop-color="#B0071C"/>
</radialGradient>
<radialGradient id="paint1_radial_73_1073" cx="0" cy="0" r="1" gradientUnits="userSpaceOnUse" gradientTransform="translate(910.872 52.1806) rotate(-90) scale(0.5 910.872)">
<stop offset="0.645833" stop-color="#D01027" stop-opacity="0"/>
<stop offset="1" stop-color="#B0071C"/>
</radialGradient>
<radialGradient id="paint2_radial_73_1073" cx="0" cy="0" r="1" gradientUnits="userSpaceOnUse" gradientTransform="translate(910.872 90.0448) rotate(-90) scale(0.5 910.872)">
<stop offset="0.645833" stop-color="#D01027" stop-opacity="0"/>
<stop offset="1" stop-color="#B0071C"/>
</radialGradient>
<radialGradient id="paint3_radial_73_1073" cx="0" cy="0" r="1" gradientUnits="userSpaceOnUse" gradientTransform="translate(910.872 129.555) rotate(-90) scale(0.5 910.872)">
<stop offset="0.645833" stop-color="#D01027" stop-opacity="0"/>
<stop offset="1" stop-color="#B0071C"/>
</radialGradient>
<radialGradient id="paint4_radial_73_1073" cx="0" cy="0" r="1" gradientUnits="userSpaceOnUse" gradientTransform="translate(910.872 170.712) rotate(-90) scale(0.5 910.872)">
<stop offset="0.645833" stop-color="#D01027" stop-opacity="0"/>
<stop offset="1" stop-color="#B0071C"/>
</radialGradient>
<radialGradient id="paint5_radial_73_1073" cx="0" cy="0" r="1" gradientUnits="userSpaceOnUse" gradientTransform="translate(910.872 211.869) rotate(-90) scale(0.5 910.872)">
<stop offset="0.645833" stop-color="#D01027" stop-opacity="0"/>
<stop offset="1" stop-color="#B0071C"/>
</radialGradient>
<radialGradient id="paint6_radial_73_1073" cx="0" cy="0" r="1" gradientUnits="userSpaceOnUse" gradientTransform="translate(910.872 253.025) rotate(-90) scale(0.5 910.872)">
<stop offset="0.645833" stop-color="#D01027" stop-opacity="0"/>
<stop offset="1" stop-color="#B0071C"/>
</radialGradient>
<radialGradient id="paint7_radial_73_1073" cx="0" cy="0" r="1" gradientUnits="userSpaceOnUse" gradientTransform="translate(910.872 294.182) rotate(-90) scale(0.5 910.872)">
<stop offset="0.645833" stop-color="#D01027" stop-opacity="0"/>
<stop offset="1" stop-color="#B0071C"/>
</radialGradient>
<radialGradient id="paint8_radial_73_1073" cx="0" cy="0" r="1" gradientUnits="userSpaceOnUse" gradientTransform="translate(910.872 335.339) rotate(-90) scale(0.5 910.872)">
<stop offset="0.645833" stop-color="#D01027" stop-opacity="0"/>
<stop offset="1" stop-color="#B0071C"/>
</radialGradient>
<radialGradient id="paint9_radial_73_1073" cx="0" cy="0" r="1" gradientUnits="userSpaceOnUse" gradientTransform="translate(910.872 376.496) rotate(-90) scale(0.5 910.872)">
<stop offset="0.645833" stop-color="#D01027" stop-opacity="0"/>
<stop offset="1" stop-color="#B0071C"/>
</radialGradient>
<radialGradient id="paint10_radial_73_1073" cx="0" cy="0" r="1" gradientUnits="userSpaceOnUse" gradientTransform="translate(910.872 417.652) rotate(-90) scale(0.5 910.872)">
<stop offset="0.645833" stop-color="#D01027" stop-opacity="0"/>
<stop offset="1" stop-color="#B0071C"/>
</radialGradient>
<radialGradient id="paint11_radial_73_1073" cx="0" cy="0" r="1" gradientUnits="userSpaceOnUse" gradientTransform="translate(910.872 458.809) rotate(-90) scale(0.5 910.872)">
<stop offset="0.645833" stop-color="#D01027" stop-opacity="0"/>
<stop offset="1" stop-color="#B0071C"/>
</radialGradient>
<radialGradient id="paint12_radial_73_1073" cx="0" cy="0" r="1" gradientUnits="userSpaceOnUse" gradientTransform="translate(910.872 499.966) rotate(-90) scale(0.5 910.872)">
<stop offset="0.645833" stop-color="#D01027" stop-opacity="0"/>
<stop offset="1" stop-color="#B0071C"/>
</radialGradient>
<radialGradient id="paint13_radial_73_1073" cx="0" cy="0" r="1" gradientUnits="userSpaceOnUse" gradientTransform="translate(910.872 541.123) rotate(-90) scale(0.5 910.872)">
<stop offset="0.645833" stop-color="#D01027" stop-opacity="0"/>
<stop offset="1" stop-color="#B0071C"/>
</radialGradient>
<radialGradient id="paint14_radial_73_1073" cx="0" cy="0" r="1" gradientUnits="userSpaceOnUse" gradientTransform="translate(910.872 582.279) rotate(-90) scale(0.5 910.872)">
<stop offset="0.645833" stop-color="#D01027" stop-opacity="0"/>
<stop offset="1" stop-color="#B0071C"/>
</radialGradient>
<radialGradient id="paint15_radial_73_1073" cx="0" cy="0" r="1" gradientUnits="userSpaceOnUse" gradientTransform="translate(910.872 623.436) rotate(-90) scale(0.5 910.872)">
<stop offset="0.645833" stop-color="#D01027" stop-opacity="0"/>
<stop offset="1" stop-color="#B0071C"/>
</radialGradient>
<radialGradient id="paint16_radial_73_1073" cx="0" cy="0" r="1" gradientUnits="userSpaceOnUse" gradientTransform="translate(910.872 664.593) rotate(-90) scale(0.5 910.872)">
<stop offset="0.645833" stop-color="#D01027" stop-opacity="0"/>
<stop offset="1" stop-color="#B0071C"/>
</radialGradient>
<radialGradient id="paint17_radial_73_1073" cx="0" cy="0" r="1" gradientUnits="userSpaceOnUse" gradientTransform="translate(910.872 705.75) rotate(-90) scale(0.5 910.872)">
<stop offset="0.645833" stop-color="#D01027" stop-opacity="0"/>
<stop offset="1" stop-color="#B0071C"/>
</radialGradient>
<radialGradient id="paint18_radial_73_1073" cx="0" cy="0" r="1" gradientUnits="userSpaceOnUse" gradientTransform="translate(910.872 746.906) rotate(-90) scale(0.5 910.872)">
<stop offset="0.645833" stop-color="#D01027" stop-opacity="0"/>
<stop offset="1" stop-color="#B0071C"/>
</radialGradient>
<radialGradient id="paint19_radial_73_1073" cx="0" cy="0" r="1" gradientUnits="userSpaceOnUse" gradientTransform="translate(33.0291 474.949) rotate(180) scale(0.5 474.949)">
<stop offset="0.645833" stop-color="#D01027" stop-opacity="0"/>
<stop offset="1" stop-color="#B0071C"/>
</radialGradient>
<radialGradient id="paint20_radial_73_1073" cx="0" cy="0" r="1" gradientUnits="userSpaceOnUse" gradientTransform="translate(66.5581 474.949) rotate(180) scale(0.5 474.949)">
<stop offset="0.645833" stop-color="#D01027" stop-opacity="0"/>
<stop offset="1" stop-color="#B0071C"/>
</radialGradient>
<radialGradient id="paint21_radial_73_1073" cx="0" cy="0" r="1" gradientUnits="userSpaceOnUse" gradientTransform="translate(100.087 474.949) rotate(180) scale(0.5 474.949)">
<stop offset="0.645833" stop-color="#D01027" stop-opacity="0"/>
<stop offset="1" stop-color="#B0071C"/>
</radialGradient>
<radialGradient id="paint22_radial_73_1073" cx="0" cy="0" r="1" gradientUnits="userSpaceOnUse" gradientTransform="translate(133.616 474.949) rotate(180) scale(0.5 474.949)">
<stop offset="0.645833" stop-color="#D01027" stop-opacity="0"/>
<stop offset="1" stop-color="#B0071C"/>
</radialGradient>
<radialGradient id="paint23_radial_73_1073" cx="0" cy="0" r="1" gradientUnits="userSpaceOnUse" gradientTransform="translate(167.145 474.949) rotate(180) scale(0.5 474.949)">
<stop offset="0.645833" stop-color="#D01027" stop-opacity="0"/>
<stop offset="1" stop-color="#B0071C"/>
</radialGradient>
<radialGradient id="paint24_radial_73_1073" cx="0" cy="0" r="1" gradientUnits="userSpaceOnUse" gradientTransform="translate(200.674 474.949) rotate(180) scale(0.5 474.949)">
<stop offset="0.645833" stop-color="#D01027" stop-opacity="0"/>
<stop offset="1" stop-color="#B0071C"/>
</radialGradient>
<radialGradient id="paint25_radial_73_1073" cx="0" cy="0" r="1" gradientUnits="userSpaceOnUse" gradientTransform="translate(234.203 474.949) rotate(180) scale(0.5 474.949)">
<stop offset="0.645833" stop-color="#D01027" stop-opacity="0"/>
<stop offset="1" stop-color="#B0071C"/>
</radialGradient>
<radialGradient id="paint26_radial_73_1073" cx="0" cy="0" r="1" gradientUnits="userSpaceOnUse" gradientTransform="translate(267.732 474.949) rotate(180) scale(0.5 474.949)">
<stop offset="0.645833" stop-color="#D01027" stop-opacity="0"/>
<stop offset="1" stop-color="#B0071C"/>
</radialGradient>
<radialGradient id="paint27_radial_73_1073" cx="0" cy="0" r="1" gradientUnits="userSpaceOnUse" gradientTransform="translate(301.261 474.949) rotate(180) scale(0.5 474.949)">
<stop offset="0.645833" stop-color="#D01027" stop-opacity="0"/>
<stop offset="1" stop-color="#B0071C"/>
</radialGradient>
<radialGradient id="paint28_radial_73_1073" cx="0" cy="0" r="1" gradientUnits="userSpaceOnUse" gradientTransform="translate(334.79 474.949) rotate(180) scale(0.5 474.949)">
<stop offset="0.645833" stop-color="#D01027" stop-opacity="0"/>
<stop offset="1" stop-color="#B0071C"/>
</radialGradient>
<radialGradient id="paint29_radial_73_1073" cx="0" cy="0" r="1" gradientUnits="userSpaceOnUse" gradientTransform="translate(368.319 474.949) rotate(180) scale(0.5 474.949)">
<stop offset="0.645833" stop-color="#D01027" stop-opacity="0"/>
<stop offset="1" stop-color="#B0071C"/>
</radialGradient>
<radialGradient id="paint30_radial_73_1073" cx="0" cy="0" r="1" gradientUnits="userSpaceOnUse" gradientTransform="translate(401.848 474.949) rotate(180) scale(0.5 474.949)">
<stop offset="0.645833" stop-color="#D01027" stop-opacity="0"/>
<stop offset="1" stop-color="#B0071C"/>
</radialGradient>
<radialGradient id="paint31_radial_73_1073" cx="0" cy="0" r="1" gradientUnits="userSpaceOnUse" gradientTransform="translate(435.377 474.949) rotate(180) scale(0.5 474.949)">
<stop offset="0.645833" stop-color="#D01027" stop-opacity="0"/>
<stop offset="1" stop-color="#B0071C"/>
</radialGradient>
<radialGradient id="paint32_radial_73_1073" cx="0" cy="0" r="1" gradientUnits="userSpaceOnUse" gradientTransform="translate(468.906 474.949) rotate(180) scale(0.5 474.949)">
<stop offset="0.645833" stop-color="#D01027" stop-opacity="0"/>
<stop offset="1" stop-color="#B0071C"/>
</radialGradient>
<radialGradient id="paint33_radial_73_1073" cx="0" cy="0" r="1" gradientUnits="userSpaceOnUse" gradientTransform="translate(502.435 474.949) rotate(180) scale(0.5 474.949)">
<stop offset="0.645833" stop-color="#D01027" stop-opacity="0"/>
<stop offset="1" stop-color="#B0071C"/>
</radialGradient>
<radialGradient id="paint34_radial_73_1073" cx="0" cy="0" r="1" gradientUnits="userSpaceOnUse" gradientTransform="translate(535.965 474.949) rotate(180) scale(0.5 474.949)">
<stop offset="0.645833" stop-color="#D01027" stop-opacity="0"/>
<stop offset="1" stop-color="#B0071C"/>
</radialGradient>
<radialGradient id="paint35_radial_73_1073" cx="0" cy="0" r="1" gradientUnits="userSpaceOnUse" gradientTransform="translate(569.494 474.949) rotate(180) scale(0.5 474.949)">
<stop offset="0.645833" stop-color="#D01027" stop-opacity="0"/>
<stop offset="1" stop-color="#B0071C"/>
</radialGradient>
<radialGradient id="paint36_radial_73_1073" cx="0" cy="0" r="1" gradientUnits="userSpaceOnUse" gradientTransform="translate(603.023 474.949) rotate(180) scale(0.5 474.949)">
<stop offset="0.645833" stop-color="#D01027" stop-opacity="0"/>
<stop offset="1" stop-color="#B0071C"/>
</radialGradient>
<radialGradient id="paint37_radial_73_1073" cx="0" cy="0" r="1" gradientUnits="userSpaceOnUse" gradientTransform="translate(636.552 474.949) rotate(180) scale(0.5 474.949)">
<stop offset="0.645833" stop-color="#D01027" stop-opacity="0"/>
<stop offset="1" stop-color="#B0071C"/>
</radialGradient>
<radialGradient id="paint38_radial_73_1073" cx="0" cy="0" r="1" gradientUnits="userSpaceOnUse" gradientTransform="translate(670.081 474.949) rotate(180) scale(0.5 474.949)">
<stop offset="0.645833" stop-color="#D01027" stop-opacity="0"/>
<stop offset="1" stop-color="#B0071C"/>
</radialGradient>
<radialGradient id="paint39_radial_73_1073" cx="0" cy="0" r="1" gradientUnits="userSpaceOnUse" gradientTransform="translate(703.61 474.949) rotate(180) scale(0.5 474.949)">
<stop offset="0.645833" stop-color="#D01027" stop-opacity="0"/>
<stop offset="1" stop-color="#B0071C"/>
</radialGradient>
<radialGradient id="paint40_radial_73_1073" cx="0" cy="0" r="1" gradientUnits="userSpaceOnUse" gradientTransform="translate(737.139 474.949) rotate(180) scale(0.5 474.949)">
<stop offset="0.645833" stop-color="#D01027" stop-opacity="0"/>
<stop offset="1" stop-color="#B0071C"/>
</radialGradient>
<clipPath id="clip0_73_1073">
<rect width="771" height="771" rx="30" fill="white"/>
</clipPath>
<clipPath id="clip1_73_1073">
<rect width="582.181" height="218.126" fill="white" transform="translate(283 671.854) rotate(-51.2505)"/>
</clipPath>
</defs>
</svg>
