<svg width="308" height="276" viewBox="0 0 308 276" fill="none" xmlns="http://www.w3.org/2000/svg">
<g clip-path="url(#clip0_111_2097)">
<g filter="url(#filter0_f_111_2097)">
<mask id="mask0_111_2097" style="mask-type:alpha" maskUnits="userSpaceOnUse" x="-91" y="-108" width="367" height="367">
<g clip-path="url(#clip1_111_2097)">
<line x1="775.231" y1="13.0502" x2="-91" y2="13.0502" stroke="url(#paint0_radial_111_2097)"/>
<line x1="775.231" y1="32.6201" x2="-91" y2="32.6201" stroke="url(#paint1_radial_111_2097)"/>
<line x1="775.231" y1="52.1899" x2="-91" y2="52.1899" stroke="url(#paint2_radial_111_2097)"/>
<line x1="775.231" y1="71.7598" x2="-91" y2="71.7598" stroke="url(#paint3_radial_111_2097)"/>
<line x1="775.231" y1="91.3296" x2="-91" y2="91.3296" stroke="url(#paint4_radial_111_2097)"/>
<line x1="775.231" y1="110.899" x2="-91" y2="110.899" stroke="url(#paint5_radial_111_2097)"/>
<line x1="775.231" y1="130.469" x2="-91" y2="130.469" stroke="url(#paint6_radial_111_2097)"/>
<line x1="775.231" y1="150.039" x2="-91" y2="150.039" stroke="url(#paint7_radial_111_2097)"/>
<line x1="775.231" y1="169.609" x2="-91" y2="169.609" stroke="url(#paint8_radial_111_2097)"/>
<line x1="775.231" y1="189.179" x2="-91" y2="189.179" stroke="url(#paint9_radial_111_2097)"/>
<line x1="775.231" y1="208.749" x2="-91" y2="208.749" stroke="url(#paint10_radial_111_2097)"/>
<line x1="775.231" y1="228.319" x2="-91" y2="228.319" stroke="url(#paint11_radial_111_2097)"/>
<line x1="775.231" y1="247.888" x2="-91" y2="247.888" stroke="url(#paint12_radial_111_2097)"/>
<line x1="5.15729" y1="-108" x2="5.15729" y2="343.672" stroke="url(#paint13_radial_111_2097)"/>
<line x1="21.1006" y1="-108" x2="21.1006" y2="343.672" stroke="url(#paint14_radial_111_2097)"/>
<line x1="37.0435" y1="-108" x2="37.0435" y2="343.672" stroke="url(#paint15_radial_111_2097)"/>
<line x1="52.9864" y1="-108" x2="52.9864" y2="343.672" stroke="url(#paint16_radial_111_2097)"/>
<line x1="68.9293" y1="-108" x2="68.9293" y2="343.672" stroke="url(#paint17_radial_111_2097)"/>
<line x1="84.8721" y1="-108" x2="84.8721" y2="343.672" stroke="url(#paint18_radial_111_2097)"/>
<line x1="100.815" y1="-108" x2="100.815" y2="343.672" stroke="url(#paint19_radial_111_2097)"/>
<line x1="116.758" y1="-108" x2="116.758" y2="343.672" stroke="url(#paint20_radial_111_2097)"/>
<line x1="132.701" y1="-108" x2="132.701" y2="343.672" stroke="url(#paint21_radial_111_2097)"/>
<line x1="148.644" y1="-108" x2="148.644" y2="343.672" stroke="url(#paint22_radial_111_2097)"/>
<line x1="164.587" y1="-108" x2="164.587" y2="343.672" stroke="url(#paint23_radial_111_2097)"/>
<line x1="180.529" y1="-108" x2="180.529" y2="343.672" stroke="url(#paint24_radial_111_2097)"/>
<line x1="196.472" y1="-108" x2="196.472" y2="343.672" stroke="url(#paint25_radial_111_2097)"/>
<line x1="212.415" y1="-108" x2="212.415" y2="343.672" stroke="url(#paint26_radial_111_2097)"/>
<line x1="228.358" y1="-108" x2="228.358" y2="343.672" stroke="url(#paint27_radial_111_2097)"/>
<line x1="244.301" y1="-108" x2="244.301" y2="343.672" stroke="url(#paint28_radial_111_2097)"/>
<line x1="260.244" y1="-108" x2="260.244" y2="343.672" stroke="url(#paint29_radial_111_2097)"/>
</g>
</mask>
<g mask="url(#mask0_111_2097)">
<g filter="url(#filter1_f_111_2097)">
<circle cx="156.496" cy="139.495" r="94.3859" fill="#EBFF00" fill-opacity="0.15"/>
</g>
</g>
</g>
<g clip-path="url(#clip2_111_2097)">
<path d="M208.712 55.8467L201.987 64.2263L207.471 68.628L214.197 60.2484L208.712 55.8467Z" stroke="#B0BF02" stroke-width="0.5" stroke-miterlimit="10"/>
<path d="M195.248 72.5516L192.939 75.4278L199.658 80.8197L201.966 77.9435L195.248 72.5516Z" stroke="#B0BF02" stroke-width="0.5" stroke-miterlimit="10"/>
<path d="M199.911 66.8127L195.283 72.5795L201.966 77.9435L206.594 72.1767L199.911 66.8127Z" stroke="#B0BF02" stroke-width="0.5" stroke-miterlimit="10"/>
<path d="M201.987 64.2264L199.911 66.8127L206.595 72.1767L208.67 69.5903L201.987 64.2264Z" stroke="#B0BF02" stroke-width="0.5" stroke-miterlimit="10"/>
<path d="M193.732 74.9894L195.188 73.1746L194.339 69.3152L196.394 66.7554L199.914 66.8086L201.68 64.6081L190.897 55.9539L186.974 60.8429L189.167 71.7555L193.732 74.9894Z" stroke="#B0BF02" stroke-width="0.5" stroke-miterlimit="10"/>
<path d="M160.615 162.29L158.705 160.757L158.721 160.508C158.903 157.523 155.895 155.374 153.13 156.518L150.176 157.738L142.363 151.468L162.162 126.798L163.128 127.574L162.119 128.831L164.444 134.714L178.313 145.845C181.342 148.276 184.757 150.181 188.415 151.482L199.37 155.378C200.329 155.718 200.822 156.782 200.461 157.734L195.443 170.957C194.532 173.357 191.803 174.51 189.447 173.491L176.398 167.848C171.895 165.902 167.672 163.359 163.844 160.287L162.811 159.458L160.615 162.29Z" stroke="#B0BF02" stroke-width="0.5" stroke-miterlimit="10"/>
<path d="M171.301 144.289L177.809 149.512C180.838 151.943 184.253 153.848 187.91 155.149L199.846 159.391C200.27 159.541 200.493 160.008 200.34 160.433L200.021 161.328C199.87 161.75 199.41 161.972 198.987 161.826L189.75 158.622C182.232 156.106 180.195 155.35 172.139 148.885L169.531 146.791L170.961 143.959L171.301 144.289Z" stroke="#B0BF02" stroke-width="0.5" stroke-miterlimit="10"/>
<path d="M167.934 150.007L174.442 155.23C177.471 157.661 180.886 159.566 184.544 160.867L197.494 165.491C197.856 165.621 198.045 166.017 197.917 166.381L197.52 167.499C197.392 167.86 196.994 168.05 196.632 167.924L186.382 164.343C179.998 162.129 174.041 158.835 168.771 154.605L166.163 152.512L167.593 149.679L167.934 150.007Z" stroke="#B0BF02" stroke-width="0.5" stroke-miterlimit="10"/>
<path d="M164.855 155.074L166.46 156.362C172.151 160.929 178.557 164.53 185.417 167.018L196.188 170.924L195.914 171.815C195.69 172.541 194.914 172.943 194.192 172.709L184.939 169.722C177.238 167.237 170.057 163.367 163.748 158.303L163.186 157.852L164.855 155.074Z" stroke="#B0BF02" stroke-width="0.5" stroke-miterlimit="10"/>
<path d="M161.214 160.293L160.581 159.906C160.191 159.667 160.061 159.164 160.288 158.768L171.214 139.597C171.472 139.146 172.07 139.033 172.475 139.357L173.01 139.787C173.331 140.044 173.42 140.498 173.219 140.857L162.811 159.458L162.32 160.09C162.057 160.43 161.581 160.518 161.214 160.293Z" stroke="#B0BF02" stroke-width="0.5" stroke-miterlimit="10"/>
<path d="M164.013 130.576L147.609 151.016C147.147 151.592 146.304 151.684 145.728 151.221L145.544 151.074C144.968 150.611 144.876 149.769 145.338 149.193L161.742 128.753L164.013 130.576Z" stroke="#B0BF02" stroke-width="0.5" stroke-miterlimit="10"/>
<path d="M164.37 131.208C165.082 130.32 164.939 129.024 164.051 128.311C163.164 127.598 161.867 127.74 161.155 128.627C160.442 129.515 160.585 130.811 161.473 131.524C162.361 132.237 163.658 132.095 164.37 131.208Z" stroke="#B0BF02" stroke-width="0.5" stroke-miterlimit="10"/>
<path d="M158.702 153.831L158.682 153.965L158.555 154.015C157.704 154.342 156.746 154.194 156.035 153.623L149.554 148.421C149.002 147.979 148.913 147.173 149.356 146.622L149.49 146.454C149.933 145.903 150.739 145.815 151.29 146.258L157.771 151.459C158.486 152.026 158.838 152.93 158.702 153.831Z" stroke="#B0BF02" stroke-width="0.5" stroke-miterlimit="10"/>
<path d="M151.997 153.8L151.881 153.945C151.386 154.561 150.488 154.659 149.871 154.164L148.597 153.141C147.98 152.646 147.881 151.748 148.376 151.131L148.492 150.986C148.987 150.37 149.885 150.272 150.502 150.767L151.777 151.79C152.394 152.285 152.492 153.183 151.997 153.8Z" stroke="#B0BF02" stroke-width="0.5" stroke-miterlimit="10"/>
<path d="M149.591 151.945L149.55 151.996C149.376 152.212 149.409 152.531 149.628 152.706L150.077 153.067C150.294 153.241 150.612 153.208 150.787 152.989L150.828 152.938C151.002 152.722 150.969 152.403 150.75 152.228L150.301 151.867C150.082 151.692 149.766 151.726 149.591 151.945Z" stroke="#B0BF02" stroke-width="0.5" stroke-miterlimit="10"/>
<path d="M153.834 155.951L155.834 153.459L154.274 152.206L151.136 156.116L151.279 156.23C152.062 156.858 153.206 156.733 153.834 155.951Z" stroke="#B0BF02" stroke-width="0.5" stroke-miterlimit="10"/>
<path d="M155.302 154.122L160.527 158.316" stroke="#B0BF02" stroke-width="0.5" stroke-miterlimit="10"/>
<path d="M135.732 177.502L138.224 179.502L146.21 206.287L158.278 198.218L159.847 196.262L159.566 193.704L156.306 194.189L152.86 184.076L154.952 181.469L154.542 180.452L151.325 180.549L149.65 175.576L153.257 171.081L152.132 169.718L151.041 170.102C148.256 171.082 145.339 169.009 145.348 166.056L145.355 163.994L138.321 172.757L135.732 177.502Z" stroke="#B0BF02" stroke-width="0.5" stroke-miterlimit="10"/>
<path d="M152.907 119.367L149.937 123.068L151.963 124.694L154.933 120.993L152.907 119.367Z" stroke="#B0BF02" stroke-width="0.5" stroke-miterlimit="10"/>
<path d="M156.307 128.872L151.625 125.114L154.933 120.993L160.557 125.506L157.249 129.627L156.307 128.872Z" stroke="#B0BF02" stroke-width="0.5" stroke-miterlimit="10"/>
<path d="M93.1007 244.48L98.6856 219.632L109.865 205.702L105.218 201.973L82.8588 229.833L79.1096 230.495L77.5215 231.976L93.1007 244.48Z" stroke="#B0BF02" stroke-width="0.5" stroke-miterlimit="10"/>
<path d="M68.9146 226.042L92.8768 245.273C93.2199 245.549 93.7226 245.496 93.9995 245.151C94.2747 244.808 94.2213 244.305 93.8761 244.028L79.0527 232.131L78.9496 231.193L70.3317 224.276L68.9146 226.042Z" stroke="#B0BF02" stroke-width="0.5" stroke-miterlimit="10"/>
<path d="M68.4258 226.17L68.0595 222.835L77.1652 211.489L79.261 213.171L101.2 185.836L111.942 194.457L82.6865 230.909C81.4562 232.442 79.2181 232.687 77.6841 231.456L71.6788 226.636C70.9026 226.013 69.8801 225.793 68.9167 226.044L68.4258 226.17Z" stroke="#B0BF02" stroke-width="0.5" stroke-miterlimit="10"/>
<path d="M104.118 209.93L101.764 212.863L99.0718 210.703C98.4753 210.224 98.3795 209.352 98.8579 208.756L99.4772 207.984C99.9555 207.388 100.828 207.293 101.424 207.771L104.117 209.932L104.118 209.93Z" stroke="#B0BF02" stroke-width="0.5" stroke-miterlimit="10"/>
<path d="M99.6987 230.605L94.4246 226.372L97.4121 214.419L104.108 206.076L106.909 205.77L109.618 207.944L102.291 217.073L99.6987 230.605Z" stroke="#B0BF02" stroke-width="0.5" stroke-miterlimit="10"/>
<path d="M106.662 211.626L103.944 215.013L106.25 216.864L108.968 213.477L106.662 211.626Z" stroke="#B0BF02" stroke-width="0.5" stroke-miterlimit="10"/>
<path d="M77.0878 216.485L71.9435 222.895C71.7862 223.091 71.4991 223.123 71.303 222.965L70.8271 222.583C70.631 222.426 70.5995 222.139 70.7567 221.943L75.901 215.533C76.0583 215.337 76.3454 215.306 76.5415 215.463L77.0174 215.845C77.2135 216.002 77.2451 216.289 77.0878 216.485Z" stroke="#B0BF02" stroke-width="0.5" stroke-miterlimit="10"/>
<path d="M101.201 185.834L99.7446 187.649L107.866 194.167L109.323 192.352L101.201 185.834Z" stroke="#B0BF02" stroke-width="0.5" stroke-miterlimit="10"/>
<path d="M112.844 172.218L101.636 186.183L108.273 191.509L119.48 177.545L112.844 172.218Z" stroke="#B0BF02" stroke-width="0.5" stroke-miterlimit="10"/>
<path d="M114.525 170.124L112.844 172.218L119.48 177.545L121.161 175.45L114.525 170.124Z" stroke="#B0BF02" stroke-width="0.5" stroke-miterlimit="10"/>
<path d="M111.034 193.726L113.891 190.166L114.645 185.72L119.409 179.784L119.145 177.967L108.274 191.511L111.034 193.726Z" stroke="#B0BF02" stroke-width="0.5" stroke-miterlimit="10"/>
<path d="M114.396 168.974L113.885 169.611L127.136 180.245L127.647 179.609L114.396 168.974Z" stroke="#B0BF02" stroke-width="0.5" stroke-miterlimit="10"/>
<path d="M127.646 179.61L128.157 178.973L114.907 168.338L114.395 168.975L127.646 179.61Z" stroke="#B0BF02" stroke-width="0.5" stroke-miterlimit="10"/>
<path d="M114.906 168.339L117.247 165.422L122.235 169.379L123.359 162.121L129.717 167.225L143.53 150.014L152.205 156.977L135.732 177.502L135.648 177.435C133.605 175.796 130.634 176.075 128.934 178.064L128.158 178.972L114.907 168.337L114.906 168.339Z" stroke="#B0BF02" stroke-width="0.5" stroke-miterlimit="10"/>
<path d="M136.99 143.634L151.356 125.734C151.861 125.105 152.781 125.005 153.41 125.51L157.755 128.997L141.56 149.175L137.215 145.688C136.586 145.183 136.484 144.265 136.99 143.634Z" stroke="#B0BF02" stroke-width="0.5" stroke-miterlimit="10"/>
<path d="M150.479 122.392L116.987 164.123L119.432 166.085L152.924 124.354L150.479 122.392Z" stroke="#B0BF02" stroke-width="0.5" stroke-miterlimit="10"/>
<path d="M160.557 125.506L162.164 126.796L142.356 151.478L128.894 168.251C126.611 171.095 122.452 171.549 119.607 169.266L116.295 166.608L117.78 164.759L118.364 165.228C118.76 165.546 119.342 165.482 119.66 165.086L131.55 150.27L134.764 152.849L139.218 147.299L141.559 149.177L160.557 125.506Z" stroke="#B0BF02" stroke-width="0.5" stroke-miterlimit="10"/>
<path d="M144.225 136.268L138.029 143.988C137.745 144.342 137.802 144.857 138.155 145.14L139.367 146.113L140.523 145.986L138.858 144.65C138.729 144.547 138.709 144.359 138.812 144.231L144.085 137.66L144.225 136.268Z" stroke="#B0BF02" stroke-width="0.5" stroke-miterlimit="10"/>
<path d="M145.842 134.253L152.038 126.533C152.322 126.18 152.837 126.124 153.191 126.407L154.402 127.379L154.529 128.535L152.864 127.199C152.735 127.096 152.548 127.116 152.444 127.245L147.171 133.816L145.842 134.253Z" stroke="#B0BF02" stroke-width="0.5" stroke-miterlimit="10"/>
<path d="M149.663 135.648L146.412 139.698L144.427 138.105C143.865 137.654 143.773 136.832 144.225 136.268L145.842 134.253C146.293 133.692 147.115 133.6 147.679 134.053L149.664 135.646L149.663 135.648Z" stroke="#B0BF02" stroke-width="0.5" stroke-miterlimit="10"/>
<path d="M148.27 135.715L146.177 138.321L145.34 137.649C145.044 137.412 144.996 136.977 145.234 136.681L146.464 135.148C146.702 134.852 147.136 134.805 147.432 135.043L148.27 135.715Z" stroke="#B0BF02" stroke-width="0.5" stroke-miterlimit="10"/>
<path d="M158.774 125.797L140.619 148.419L141.562 149.177L159.718 126.555L158.774 125.797Z" stroke="#B0BF02" stroke-width="0.5" stroke-miterlimit="10"/>
<path d="M150.873 135.643L146.67 140.879L147.614 141.636L151.816 136.4L150.873 135.643Z" stroke="#B0BF02" stroke-width="0.5" stroke-miterlimit="10"/>
<path d="M133.909 143.038L129.455 148.588L134.765 152.851L139.22 147.3L133.909 143.038Z" stroke="#B0BF02" stroke-width="0.5" stroke-miterlimit="10"/>
<path d="M132.76 147.395L132.096 148.221L134.549 150.19L135.213 149.364L132.76 147.395Z" stroke="#B0BF02" stroke-width="0.5" stroke-miterlimit="10"/>
<path d="M132.76 147.395L133.911 143.036" stroke="#B0BF02" stroke-width="0.5" stroke-miterlimit="10"/>
<path d="M135.213 149.364L139.221 147.298" stroke="#B0BF02" stroke-width="0.5" stroke-miterlimit="10"/>
<path d="M132.096 148.221L129.455 148.588" stroke="#B0BF02" stroke-width="0.5" stroke-miterlimit="10"/>
<path d="M134.549 150.19L134.765 152.851" stroke="#B0BF02" stroke-width="0.5" stroke-miterlimit="10"/>
<path d="M116.29 162.033L115.381 161.303L112.606 164.761C112.396 165.023 112.437 165.407 112.7 165.619L115.37 167.762L117.985 164.504L118.527 163.828L120.581 161.268L118.345 159.473L116.29 162.033Z" stroke="#B0BF02" stroke-width="0.5" stroke-miterlimit="10"/>
<path d="M115.383 161.305L119.305 156.418L120.876 157.679L152.126 118.74L152.907 119.367L119.788 160.632L118.344 159.473L116.29 162.033L115.383 161.305Z" stroke="#B0BF02" stroke-width="0.5" stroke-miterlimit="10"/>
<path d="M116.162 141.249L109.062 148.999L109.029 152.379L112.755 155.37L119.48 146.99L118.339 142.403L116.964 141.299L116.162 141.249Z" stroke="#B0BF02" stroke-width="0.5" stroke-miterlimit="10"/>
<path d="M114.636 162.236L111.469 156.21L119.043 146.773L118.016 142.734L116.165 141.249L141.205 114.606C142.606 113.116 144.918 112.955 146.513 114.235L148.787 116.06L152.128 118.742L120.878 157.68L119.305 156.418L114.636 162.236V162.236Z" stroke="#B0BF02" stroke-width="0.5" stroke-miterlimit="10"/>
<path d="M149.577 116.694L144.328 123.235L147.157 125.505L152.406 118.965L149.577 116.694Z" stroke="#B0BF02" stroke-width="0.5" stroke-miterlimit="10"/>
<path d="M148.995 121.604C149.274 121.257 149.218 120.749 148.871 120.47C148.523 120.191 148.016 120.247 147.737 120.594C147.458 120.941 147.514 121.449 147.862 121.728C148.209 122.007 148.717 121.951 148.995 121.604Z" stroke="#B0BF02" stroke-width="0.5" stroke-miterlimit="10"/>
<path d="M113.393 144.289L118.042 148.02" stroke="#B0BF02" stroke-width="0.5" stroke-miterlimit="10"/>
<path d="M122.13 151.63L119.677 154.686L121.181 155.893L123.633 152.837L122.13 151.63Z" stroke="#B0BF02" stroke-width="0.5" stroke-miterlimit="10"/>
<path d="M122.029 150.446L125.29 146.383C125.747 145.814 126.577 145.725 127.145 146.181L128.944 147.625L124.033 153.745L122.233 152.301C121.665 151.845 121.574 151.013 122.029 150.446Z" stroke="#B0BF02" stroke-width="0.5" stroke-miterlimit="10"/>
<path d="M125.761 149.984C126.04 149.637 125.984 149.129 125.637 148.85C125.289 148.572 124.782 148.627 124.503 148.974C124.225 149.321 124.28 149.829 124.628 150.108C124.975 150.387 125.483 150.331 125.761 149.984Z" stroke="#B0BF02" stroke-width="0.5" stroke-miterlimit="10"/>
<path d="M118.683 149.26L113.378 155.87L115.782 157.799L121.087 151.189L118.683 149.26Z" stroke="#B0BF02" stroke-width="0.5" stroke-miterlimit="10"/>
<path d="M119.592 149.989L114.287 156.599L114.875 157.071L120.18 150.461L119.592 149.989Z" stroke="#B0BF02" stroke-width="0.5" stroke-miterlimit="10"/>
<path d="M116.415 152.951C117.507 151.59 117.289 149.601 115.927 148.508C114.566 147.416 112.576 147.633 111.484 148.994C110.392 150.354 110.611 152.343 111.972 153.436C113.334 154.529 115.323 154.312 116.415 152.951Z" stroke="#B0BF02" stroke-width="0.5" stroke-miterlimit="10"/>
<path d="M115.902 152.539C116.767 151.462 116.594 149.886 115.516 149.021C114.437 148.155 112.862 148.327 111.997 149.405C111.132 150.483 111.305 152.058 112.383 152.924C113.462 153.789 115.037 153.617 115.902 152.539Z" stroke="#B0BF02" stroke-width="0.5" stroke-miterlimit="10"/>
<path d="M114.485 151.402C114.722 151.106 114.675 150.675 114.379 150.437C114.083 150.2 113.652 150.247 113.415 150.543C113.178 150.838 113.225 151.27 113.521 151.507C113.816 151.744 114.248 151.697 114.485 151.402Z" stroke="#B0BF02" stroke-width="0.5" stroke-miterlimit="10"/>
<path d="M147.458 119.336L126.422 145.547C125.453 146.753 123.692 146.943 122.487 145.976L121.664 145.316C120.894 144.698 120.77 143.575 121.388 142.805L142.062 117.046C142.612 116.36 143.617 116.25 144.303 116.801L147.459 119.334L147.458 119.336Z" stroke="#B0BF02" stroke-width="0.5" stroke-miterlimit="10"/>
<path d="M146.459 200.402L141.664 183.049C141.442 182.246 141.892 181.409 142.685 181.153L145.101 180.37C146.962 179.766 148.968 180.731 149.657 182.563L154.182 194.575C154.766 196.124 154.117 197.866 152.66 198.653L148.118 201.11C147.468 201.464 146.655 201.117 146.459 200.402Z" stroke="#B0BF02" stroke-width="0.5" stroke-miterlimit="10"/>
<path d="M150.418 174.615L142.895 168.577" stroke="#B0BF02" stroke-width="0.5" stroke-miterlimit="10"/>
<path d="M137.84 168.518C138.328 167.911 138.231 167.023 137.622 166.535C137.014 166.047 136.126 166.144 135.638 166.751C135.151 167.359 135.248 168.247 135.856 168.735C136.464 169.223 137.353 169.126 137.84 168.518Z" stroke="#B0BF02" stroke-width="0.5" stroke-miterlimit="10"/>
<path d="M131.378 171.206C131.99 170.444 131.868 169.33 131.105 168.718C130.342 168.106 129.228 168.227 128.617 168.989C128.005 169.751 128.127 170.865 128.89 171.478C129.653 172.09 130.767 171.968 131.378 171.206Z" stroke="#B0BF02" stroke-width="0.5" stroke-miterlimit="10"/>
<path d="M133.149 159.437L124.06 170.763L119.595 167.179L128.684 155.854C129.569 154.751 131.129 154.352 132.693 154.826L133.084 154.945L133.285 155.301C134.086 156.726 134.034 158.335 133.149 159.437Z" stroke="#B0BF02" stroke-width="0.5" stroke-miterlimit="10"/>
<path d="M124.059 170.765C124.434 170.297 123.739 169.115 122.506 168.126C121.273 167.136 119.969 166.713 119.593 167.181C119.218 167.649 119.913 168.83 121.146 169.82C122.379 170.81 123.683 171.233 124.059 170.765Z" stroke="#B0BF02" stroke-width="0.5" stroke-miterlimit="10"/>
<path d="M123.38 171.61C123.755 171.142 123.06 169.96 121.827 168.971C120.594 167.981 119.29 167.558 118.915 168.026C118.539 168.494 119.234 169.676 120.467 170.665C121.701 171.655 123.004 172.078 123.38 171.61Z" stroke="#B0BF02" stroke-width="0.5" stroke-miterlimit="10"/>
<path d="M122.7 172.457C123.076 171.989 122.381 170.808 121.148 169.818C119.915 168.828 118.611 168.405 118.235 168.873C117.86 169.341 118.555 170.523 119.788 171.512C121.021 172.502 122.325 172.925 122.7 172.457Z" stroke="#B0BF02" stroke-width="0.5" stroke-miterlimit="10"/>
<path d="M152.985 118.244L152.406 118.965L161.849 126.544L162.428 125.823L152.985 118.244Z" stroke="#B0BF02" stroke-width="0.5" stroke-miterlimit="10"/>
<path d="M154.231 119.244L153.652 119.965L155.235 121.235L155.814 120.515L154.231 119.244Z" stroke="#B0BF02" stroke-width="0.5" stroke-miterlimit="10"/>
<path d="M151.412 116.982L153.199 118.416L158.563 122.721L163.927 127.026L165.712 128.459L166.086 127.994L158.936 122.256L151.785 116.517L151.412 116.982Z" stroke="#B0BF02" stroke-width="0.5" stroke-miterlimit="10"/>
<path d="M151.892 116.602L153.65 118.013L158.937 122.256L164.221 126.497L165.982 127.91L166.357 127.443L159.312 121.789L152.267 116.134L151.892 116.602Z" stroke="#B0BF02" stroke-width="0.5" stroke-miterlimit="10"/>
<path d="M152.406 116.246L154.13 117.63L159.312 121.789L164.492 125.946L166.216 127.33L166.59 126.864L159.685 121.323L152.779 115.78L152.406 116.246Z" stroke="#B0BF02" stroke-width="0.5" stroke-miterlimit="10"/>
<path d="M152.92 115.894L154.609 117.249L159.685 121.323L164.759 125.395L166.45 126.753L166.824 126.287L160.059 120.858L153.293 115.428L152.92 115.894Z" stroke="#B0BF02" stroke-width="0.5" stroke-miterlimit="10"/>
<path d="M153.455 115.558L155.106 116.882L160.059 120.858L165.012 124.833L166.661 126.156L167.036 125.689L160.434 120.39L153.83 115.09L153.455 115.558Z" stroke="#B0BF02" stroke-width="0.5" stroke-miterlimit="10"/>
<path d="M153.971 115.203L155.585 116.498L160.434 120.39L165.281 124.28L166.895 125.576L167.269 125.11L160.808 119.925L154.345 114.738L153.971 115.203Z" stroke="#B0BF02" stroke-width="0.5" stroke-miterlimit="10"/>
<path d="M154.496 114.859L156.073 116.125L160.808 119.925L165.543 123.725L167.118 124.989L167.491 124.523L161.181 119.459L154.87 114.394L154.496 114.859Z" stroke="#B0BF02" stroke-width="0.5" stroke-miterlimit="10"/>
<path d="M155.043 114.533L156.577 115.764L161.181 119.459L165.785 123.155L167.317 124.384L167.692 123.917L161.556 118.992L155.418 114.066L155.043 114.533Z" stroke="#B0BF02" stroke-width="0.5" stroke-miterlimit="10"/>
<path d="M155.571 114.185L157.086 115.401L161.633 119.051L166.18 122.7L167.694 123.915L168.064 123.453L162.004 118.589L155.941 113.724L155.571 114.185Z" stroke="#B0BF02" stroke-width="0.5" stroke-miterlimit="10"/>
<path d="M157.653 112.117L156.228 113.893L167.524 122.959L168.949 121.183L157.653 112.117Z" stroke="#B0BF02" stroke-width="0.5" stroke-miterlimit="10"/>
<path d="M164.145 119.106L163.594 119.792L164.328 120.38L164.878 119.694L164.145 119.106Z" stroke="#B0BF02" stroke-width="0.5" stroke-miterlimit="10"/>
<path d="M158.606 112.157C157.931 112.998 158.084 114.242 158.948 114.935L162.515 117.798L166.081 120.66C166.945 121.354 168.193 121.234 168.868 120.393L198.756 83.1531L193.625 79.035L188.494 74.917L158.606 112.157V112.157Z" stroke="#B0BF02" stroke-width="0.5" stroke-miterlimit="10"/>
<path d="M187.785 74.3518L156.677 113.112L157.517 113.786L188.625 75.0256L187.785 74.3518Z" stroke="#B0BF02" stroke-width="0.5" stroke-miterlimit="10"/>
<path d="M186.938 73.6715L155.83 112.432L156.669 113.106L187.777 74.3452L186.938 73.6715Z" stroke="#B0BF02" stroke-width="0.5" stroke-miterlimit="10"/>
<path d="M156.294 109.945L154.898 111.685L155.829 112.432L157.225 110.693L156.294 109.945Z" stroke="#B0BF02" stroke-width="0.5" stroke-miterlimit="10"/>
<path d="M158.274 107.477L156.878 109.217L157.81 109.964L159.206 108.225L158.274 107.477Z" stroke="#B0BF02" stroke-width="0.5" stroke-miterlimit="10"/>
<path d="M160.255 105.009L158.859 106.749L159.791 107.496L161.187 105.757L160.255 105.009Z" stroke="#B0BF02" stroke-width="0.5" stroke-miterlimit="10"/>
<path d="M162.236 102.542L160.84 104.281L161.771 105.028L163.167 103.289L162.236 102.542Z" stroke="#B0BF02" stroke-width="0.5" stroke-miterlimit="10"/>
<path d="M164.218 100.071L162.822 101.811L163.754 102.558L165.15 100.819L164.218 100.071Z" stroke="#B0BF02" stroke-width="0.5" stroke-miterlimit="10"/>
<path d="M166.199 97.6035L164.803 99.3427L165.735 100.09L167.131 98.3511L166.199 97.6035Z" stroke="#B0BF02" stroke-width="0.5" stroke-miterlimit="10"/>
<path d="M168.18 95.1356L166.784 96.8748L167.715 97.6223L169.111 95.8831L168.18 95.1356Z" stroke="#B0BF02" stroke-width="0.5" stroke-miterlimit="10"/>
<path d="M170.16 92.6676L168.765 94.4068L169.696 95.1544L171.092 93.4152L170.16 92.6676Z" stroke="#B0BF02" stroke-width="0.5" stroke-miterlimit="10"/>
<path d="M172.141 90.1996L170.745 91.9389L171.677 92.6864L173.072 90.9472L172.141 90.1996Z" stroke="#B0BF02" stroke-width="0.5" stroke-miterlimit="10"/>
<path d="M174.122 87.7317L172.726 89.4709L173.658 90.2185L175.053 88.4792L174.122 87.7317Z" stroke="#B0BF02" stroke-width="0.5" stroke-miterlimit="10"/>
<path d="M176.102 85.2637L174.707 87.0029L175.638 87.7505L177.034 86.0113L176.102 85.2637Z" stroke="#B0BF02" stroke-width="0.5" stroke-miterlimit="10"/>
<path d="M178.083 82.7958L176.688 84.535L177.619 85.2825L179.015 83.5433L178.083 82.7958Z" stroke="#B0BF02" stroke-width="0.5" stroke-miterlimit="10"/>
<path d="M180.066 80.3257L178.67 82.065L179.601 82.8125L180.997 81.0733L180.066 80.3257Z" stroke="#B0BF02" stroke-width="0.5" stroke-miterlimit="10"/>
<path d="M182.046 77.8578L180.65 79.597L181.582 80.3445L182.978 78.6053L182.046 77.8578Z" stroke="#B0BF02" stroke-width="0.5" stroke-miterlimit="10"/>
<path d="M184.027 75.3898L182.631 77.129L183.563 77.8766L184.959 76.1374L184.027 75.3898Z" stroke="#B0BF02" stroke-width="0.5" stroke-miterlimit="10"/>
<path d="M186.008 72.9219L184.612 74.6611L185.543 75.4086L186.939 73.6694L186.008 72.9219Z" stroke="#B0BF02" stroke-width="0.5" stroke-miterlimit="10"/>
<path d="M198.887 83.2617L167.779 122.022L168.618 122.696L199.726 83.9355L198.887 83.2617Z" stroke="#B0BF02" stroke-width="0.5" stroke-miterlimit="10"/>
<path d="M199.735 83.9421L168.626 122.703L169.466 123.377L200.574 84.6158L199.735 83.9421Z" stroke="#B0BF02" stroke-width="0.5" stroke-miterlimit="10"/>
<path d="M170.862 121.637L169.466 123.377L170.397 124.124L171.793 122.385L170.862 121.637Z" stroke="#B0BF02" stroke-width="0.5" stroke-miterlimit="10"/>
<path d="M172.843 119.169L171.447 120.909L172.378 121.656L173.774 119.917L172.843 119.169Z" stroke="#B0BF02" stroke-width="0.5" stroke-miterlimit="10"/>
<path d="M174.823 116.701L173.427 118.441L174.359 119.188L175.755 117.449L174.823 116.701Z" stroke="#B0BF02" stroke-width="0.5" stroke-miterlimit="10"/>
<path d="M176.804 114.233L175.408 115.973L176.34 116.72L177.735 114.981L176.804 114.233Z" stroke="#B0BF02" stroke-width="0.5" stroke-miterlimit="10"/>
<path d="M178.786 111.763L177.391 113.503L178.322 114.25L179.718 112.511L178.786 111.763Z" stroke="#B0BF02" stroke-width="0.5" stroke-miterlimit="10"/>
<path d="M180.767 109.295L179.371 111.035L180.303 111.782L181.698 110.043L180.767 109.295Z" stroke="#B0BF02" stroke-width="0.5" stroke-miterlimit="10"/>
<path d="M182.748 106.827L181.352 108.567L182.283 109.314L183.679 107.575L182.748 106.827Z" stroke="#B0BF02" stroke-width="0.5" stroke-miterlimit="10"/>
<path d="M184.728 104.36L183.333 106.099L184.264 106.846L185.66 105.107L184.728 104.36Z" stroke="#B0BF02" stroke-width="0.5" stroke-miterlimit="10"/>
<path d="M186.709 101.892L185.313 103.631L186.245 104.378L187.641 102.639L186.709 101.892Z" stroke="#B0BF02" stroke-width="0.5" stroke-miterlimit="10"/>
<path d="M188.69 99.4236L187.294 101.163L188.225 101.91L189.621 100.171L188.69 99.4236Z" stroke="#B0BF02" stroke-width="0.5" stroke-miterlimit="10"/>
<path d="M190.671 96.9557L189.275 98.6948L190.206 99.4424L191.602 97.7032L190.671 96.9557Z" stroke="#B0BF02" stroke-width="0.5" stroke-miterlimit="10"/>
<path d="M192.651 94.4877L191.255 96.2269L192.187 96.9744L193.583 95.2352L192.651 94.4877Z" stroke="#B0BF02" stroke-width="0.5" stroke-miterlimit="10"/>
<path d="M194.634 92.0177L193.238 93.7569L194.169 94.5044L195.565 92.7652L194.634 92.0177Z" stroke="#B0BF02" stroke-width="0.5" stroke-miterlimit="10"/>
<path d="M196.615 89.5497L195.219 91.2889L196.15 92.0365L197.546 90.2973L196.615 89.5497Z" stroke="#B0BF02" stroke-width="0.5" stroke-miterlimit="10"/>
<path d="M198.595 87.0817L197.199 88.821L198.131 89.5685L199.527 87.8293L198.595 87.0817Z" stroke="#B0BF02" stroke-width="0.5" stroke-miterlimit="10"/>
<path d="M200.576 84.6138L199.18 86.353L200.112 87.1005L201.507 85.3613L200.576 84.6138Z" stroke="#B0BF02" stroke-width="0.5" stroke-miterlimit="10"/>
<path d="M166.044 117.425C166.794 116.492 166.644 115.127 165.71 114.378C164.775 113.628 163.411 113.777 162.662 114.711C161.913 115.644 162.062 117.009 162.996 117.758C163.931 118.508 165.295 118.359 166.044 117.425Z" stroke="#B0BF02" stroke-width="0.5" stroke-miterlimit="10"/>
<path d="M160.835 111.872L159.715 113.269L168.088 119.988L169.208 118.592L160.835 111.872Z" stroke="#B0BF02" stroke-width="0.5" stroke-miterlimit="10"/>
<path d="M162.571 107.492L160.895 109.581L171.022 117.709L172.698 115.62L162.571 107.492Z" stroke="#B0BF02" stroke-width="0.5" stroke-miterlimit="10"/>
<path d="M165.176 104.247L163.5 106.335L173.627 114.463L175.303 112.375L165.176 104.247Z" stroke="#B0BF02" stroke-width="0.5" stroke-miterlimit="10"/>
<path d="M167.782 100.999L166.106 103.087L176.234 111.215L177.91 109.127L167.782 100.999Z" stroke="#B0BF02" stroke-width="0.5" stroke-miterlimit="10"/>
<path d="M170.387 97.7533L168.711 99.8415L178.839 107.969L180.515 105.881L170.387 97.7533Z" stroke="#B0BF02" stroke-width="0.5" stroke-miterlimit="10"/>
<path d="M172.994 94.5055L171.318 96.5938L181.445 104.722L183.121 102.633L172.994 94.5055Z" stroke="#B0BF02" stroke-width="0.5" stroke-miterlimit="10"/>
<path d="M175.599 91.2598L173.923 93.3481L184.05 101.476L185.726 99.3878L175.599 91.2598Z" stroke="#B0BF02" stroke-width="0.5" stroke-miterlimit="10"/>
<path d="M178.205 88.0121L176.529 90.1003L186.657 98.2283L188.333 96.14L178.205 88.0121Z" stroke="#B0BF02" stroke-width="0.5" stroke-miterlimit="10"/>
<path d="M180.81 84.7664L179.134 86.8547L189.262 94.9826L190.938 92.8943L180.81 84.7664Z" stroke="#B0BF02" stroke-width="0.5" stroke-miterlimit="10"/>
<path d="M183.417 81.5186L181.741 83.6069L191.868 91.7348L193.544 89.6466L183.417 81.5186Z" stroke="#B0BF02" stroke-width="0.5" stroke-miterlimit="10"/>
<path d="M186.022 78.2729L184.346 80.3612L194.473 88.4891L196.149 86.4009L186.022 78.2729Z" stroke="#B0BF02" stroke-width="0.5" stroke-miterlimit="10"/>
<path d="M188.628 75.0251L186.952 77.1134L197.08 85.2414L198.756 83.1531L188.628 75.0251Z" stroke="#B0BF02" stroke-width="0.5" stroke-miterlimit="10"/>
<path d="M188.959 74.0653L188.361 74.8104L199.191 83.5023L199.789 82.7572L188.959 74.0653Z" stroke="#B0BF02" stroke-width="0.5" stroke-miterlimit="10"/>
<path d="M189.852 72.9528L188.957 74.0674L199.787 82.7593L200.682 81.6447L189.852 72.9528Z" stroke="#B0BF02" stroke-width="0.5" stroke-miterlimit="10"/>
<path d="M195.879 78.7032L194.255 77.3999L193.806 77.9592L193.908 79.2629L199.191 83.5023L200.236 82.1999L197.801 80.2458L196.209 82.23L194.292 80.6849L195.879 78.7032Z" stroke="#B0BF02" stroke-width="0.5" stroke-miterlimit="10"/>
<path d="M200.683 81.6427L199.583 83.0144L200.375 83.6505L201.476 82.2787L200.683 81.6427Z" stroke="#B0BF02" stroke-width="0.5" stroke-miterlimit="10"/>
<path d="M194.161 76.4082L194.685 75.755L189.632 71.6992L187.421 61.0474L191.156 56.3931L202.846 65.7752L203.593 64.8443L189.83 53.7983C188.725 52.9114 187.109 53.0879 186.222 54.1922L185.86 54.6434C185.38 55.2415 185.192 56.0237 185.351 56.7756L188.629 72.4251L189.63 73.2284L189.853 72.9508L194.161 76.4082Z" stroke="#B0BF02" stroke-width="0.5" stroke-miterlimit="10"/>
<path d="M193.397 73.8786L190.636 71.6622L190.838 69.9118L188.695 61.4186L189.984 59.812L192.917 62.1662L194.038 60.7699L197.571 63.606L200.186 65.7044L199.644 66.38L198.213 66.4935L194.327 71.3355L194.469 72.6143L193.397 73.8786Z" stroke="#B0BF02" stroke-width="0.5" stroke-miterlimit="10"/>
<path d="M193.727 59.4294L193.151 60.1459C192.817 60.5623 192.21 60.6287 191.793 60.2942L190.206 59.0205L190.781 58.3039C191.115 57.8875 191.723 57.8212 192.139 58.1556L193.727 59.4294Z" stroke="#B0BF02" stroke-width="0.5" stroke-miterlimit="10"/>
<path d="M191.067 70.2499L190.954 69.5284L192.191 70.3097L197.982 63.0936L200.971 65.492L199.568 67.2394L198.646 67.3382L195.153 71.6903L195.248 72.5516L194.322 73.705L191.748 71.6394L191.067 70.2499Z" stroke="#B0BF02" stroke-width="0.5" stroke-miterlimit="10"/>
<path d="M203.48 81.4005L202.977 82.0272C202.584 82.5171 201.87 82.5951 201.38 82.2017L199.658 80.8197L201.583 78.4211L203.303 79.8015C203.793 80.1949 203.873 80.9106 203.48 81.4005Z" stroke="#B0BF02" stroke-width="0.5" stroke-miterlimit="10"/>
<path d="M202.319 80.9854C202.494 80.7667 202.459 80.447 202.24 80.2713C202.022 80.0957 201.702 80.1306 201.526 80.3493C201.351 80.568 201.386 80.8877 201.605 81.0634C201.824 81.239 202.143 81.2041 202.319 80.9854Z" stroke="#B0BF02" stroke-width="0.5" stroke-miterlimit="10"/>
<path d="M207.855 68.9362L210.8 66.9366L213.041 68.735L210.996 71.2826L211.607 71.7727L209.793 74.0325C209.601 74.2713 209.252 74.3095 209.013 74.1177L206.592 72.1751L208.668 69.5887L207.855 68.9362V68.9362Z" stroke="#B0BF02" stroke-width="0.5" stroke-miterlimit="10"/>
<path d="M211.304 70.8988L210.518 70.2677L208.049 73.3439" stroke="#B0BF02" stroke-width="0.5" stroke-miterlimit="10"/>
<path d="M211.71 70.3926L210.417 69.3548L207.542 72.9374" stroke="#B0BF02" stroke-width="0.5" stroke-miterlimit="10"/>
<path d="M207.054 72.5456L211.261 67.3035" stroke="#B0BF02" stroke-width="0.5" stroke-miterlimit="10"/>
<path d="M210.736 54.4673L208.712 55.8467L214.196 60.2484L215.103 57.9723L210.736 54.4673Z" stroke="#B0BF02" stroke-width="0.5" stroke-miterlimit="10"/>
<path d="M214.471 49.8131L210.736 54.4673L215.103 57.9723L218.838 53.318L214.471 49.8131Z" stroke="#B0BF02" stroke-width="0.5" stroke-miterlimit="10"/>
<path d="M221.312 40.1469L213.915 49.3635L219.516 53.8586L226.913 44.642L221.312 40.1469Z" stroke="#B0BF02" stroke-width="0.5" stroke-miterlimit="10"/>
<path d="M226.1 35.0015L221.712 40.4682L226.511 44.3191L230.898 38.8524L226.1 35.0015Z" stroke="#B0BF02" stroke-width="0.5" stroke-miterlimit="10"/>
<path d="M230.665 29.6812L226.278 35.1478L230.716 38.7102L235.104 33.2435L230.665 29.6812Z" stroke="#B0BF02" stroke-width="0.5" stroke-miterlimit="10"/>
<path d="M239.597 29.3688L234.633 35.554L228.514 30.6425L233.478 24.4573C233.964 23.851 234.851 23.7542 235.458 24.2411L239.378 27.387C239.988 27.8735 240.086 28.7605 239.597 29.3688Z" stroke="#B0BF02" stroke-width="0.5" stroke-miterlimit="10"/>
<path d="M231.748 38.6181L231.312 39.1611C231.092 39.4346 230.691 39.4784 230.417 39.2587L225.811 35.562C225.538 35.3423 225.494 34.9411 225.713 34.6676L226.149 34.1246C226.368 33.8511 226.77 33.8073 227.043 34.0269L231.649 37.7237C231.925 37.9413 231.969 38.3425 231.748 38.6181Z" stroke="#B0BF02" stroke-width="0.5" stroke-miterlimit="10"/>
<path d="M233.43 36.5216L232.995 37.0646C232.775 37.3382 232.374 37.382 232.1 37.1623L227.494 33.4655C227.22 33.2459 227.176 32.8447 227.396 32.5711L227.831 32.0281C228.051 31.7546 228.452 31.7108 228.726 31.9304L233.332 35.6272C233.606 35.8469 233.65 36.2481 233.43 36.5216Z" stroke="#B0BF02" stroke-width="0.5" stroke-miterlimit="10"/>
<path d="M234.448 25.4948L230.405 30.5328C230.292 30.6736 230.086 30.6961 229.945 30.583C229.804 30.4699 229.781 30.2638 229.894 30.1229L233.938 25.0849C234.051 24.9441 234.257 24.9216 234.398 25.0347C234.54 25.1458 234.563 25.3519 234.448 25.4948Z" stroke="#B0BF02" stroke-width="0.5" stroke-miterlimit="10"/>
<path d="M235.565 26.3915L231.522 31.4295C231.409 31.5704 231.203 31.5929 231.062 31.4797C230.921 31.3666 230.898 31.1605 231.011 31.0197L235.055 25.9817C235.168 25.8408 235.374 25.8183 235.515 25.9314C235.657 26.0425 235.68 26.2486 235.565 26.3915Z" stroke="#B0BF02" stroke-width="0.5" stroke-miterlimit="10"/>
<path d="M197.619 103.593L194.44 101.042L194.557 97.7492L190.47 94.4689L185.763 100.334L181.055 106.2L185.142 109.481L188.331 108.654L191.509 111.205L191.875 110.749L194.6 112.936L193.898 113.81L195.61 115.184L196.087 114.59L198.569 116.582L198.12 117.141L199.621 118.346L200.07 117.787L202.619 119.832L202.143 120.427L203.75 121.717L204.143 121.227L206.658 123.245L206.237 123.769L207.844 125.06L208.293 124.5L209.237 125.258L212.207 121.557L215.176 117.858L214.232 117.1L214.681 116.541L213.073 115.251L212.652 115.776L210.138 113.758L210.531 113.268L208.924 111.977L208.447 112.572L205.898 110.526L206.346 109.966L204.845 108.761L204.396 109.321L201.914 107.329L202.391 106.735L200.679 105.361L199.978 106.235L197.253 104.048L197.619 103.593Z" stroke="#B0BF02" stroke-width="0.5" stroke-miterlimit="10"/>
<path d="M218.496 121.546L213.714 127.505C213.439 127.848 212.934 127.903 212.591 127.627L209.395 125.062L215.176 117.858L218.373 120.423C218.716 120.699 218.773 121.201 218.496 121.546Z" stroke="#B0BF02" stroke-width="0.5" stroke-miterlimit="10"/>
<path d="M188.165 106.07L188.085 106.17C187.483 106.919 186.39 107.039 185.641 106.437L182.734 104.104L184.99 101.293L187.896 103.626C188.646 104.228 188.766 105.321 188.165 106.07Z" stroke="#B0BF02" stroke-width="0.5" stroke-miterlimit="10"/>
<path d="M192.018 101.269L191.938 101.369C191.336 102.118 190.243 102.238 189.494 101.636L186.587 99.3031L188.843 96.4922L191.749 98.825C192.499 99.4267 192.619 100.52 192.018 101.269Z" stroke="#B0BF02" stroke-width="0.5" stroke-miterlimit="10"/>
<path d="M187.486 105.452L187.335 105.639C187.133 105.89 186.764 105.933 186.51 105.729L185.36 104.806L186.243 103.706L187.393 104.629C187.645 104.831 187.687 105.2 187.486 105.452Z" stroke="#B0BF02" stroke-width="0.5" stroke-miterlimit="10"/>
<path d="M186.616 104.908C186.976 104.459 186.904 103.803 186.455 103.443C186.006 103.082 185.35 103.154 184.99 103.603C184.63 104.051 184.702 104.707 185.151 105.068C185.6 105.428 186.256 105.356 186.616 104.908Z" stroke="#B0BF02" stroke-width="0.5" stroke-miterlimit="10"/>
<path d="M191.337 100.652L191.186 100.84C190.985 101.091 190.615 101.133 190.362 100.93L189.212 100.007L190.095 98.9069L191.245 99.8299C191.498 100.03 191.54 100.399 191.337 100.652Z" stroke="#B0BF02" stroke-width="0.5" stroke-miterlimit="10"/>
<path d="M190.467 100.109C190.828 99.6598 190.755 99.004 190.306 98.6436C189.857 98.2833 189.202 98.3549 188.841 98.8036C188.481 99.2523 188.553 99.9082 189.002 100.269C189.451 100.629 190.107 100.557 190.467 100.109Z" stroke="#B0BF02" stroke-width="0.5" stroke-miterlimit="10"/>
<path d="M184.601 109.046L185.692 108.046C186.964 106.879 188.657 106.281 190.381 106.389L190.585 106.402C192.031 106.492 193.13 105.122 192.73 103.73L192.673 103.533C192.194 101.874 192.412 100.092 193.276 98.5969L194.016 97.3148" stroke="#B0BF02" stroke-width="0.5" stroke-miterlimit="10"/>
<path d="M195.613 108.239L195.573 108.351C194.942 110.083 195.487 112.027 196.925 113.182L208.58 122.536C209.07 122.929 209.788 122.851 210.181 122.361L211.366 120.885L212.55 119.409C212.944 118.919 212.865 118.201 212.374 117.808L200.719 108.454C199.281 107.3 197.265 107.188 195.71 108.179L195.613 108.239Z" stroke="#B0BF02" stroke-width="0.5" stroke-miterlimit="10"/>
<path d="M208.421 122.408L212.217 117.678" stroke="#B0BF02" stroke-width="0.5" stroke-miterlimit="10"/>
<path d="M212.286 121.459L210.309 123.923L214.128 126.988L216.106 124.524L212.286 121.459Z" stroke="#B0BF02" stroke-width="0.5" stroke-miterlimit="10"/>
<path d="M211.88 121.965L210.826 123.278L213.923 125.763L214.976 124.45L211.88 121.965Z" stroke="#B0BF02" stroke-width="0.5" stroke-miterlimit="10"/>
<path d="M214.449 118.764L213.117 120.424L216.936 123.489L218.268 121.83L214.449 118.764Z" stroke="#B0BF02" stroke-width="0.5" stroke-miterlimit="10"/>
<path d="M208.417 115.689L205.656 119.128L208.242 121.204L211.003 117.764L208.417 115.689Z" stroke="#B0BF02" stroke-width="0.5" stroke-miterlimit="10"/>
<path d="M204.26 112.353L201.499 115.792L204.085 117.868L206.846 114.428L204.26 112.353Z" stroke="#B0BF02" stroke-width="0.5" stroke-miterlimit="10"/>
<path d="M202.687 111.09L199.927 114.53L197.341 112.455L197.502 111.977C197.883 110.849 198.652 109.892 199.671 109.274L200.103 109.013L202.689 111.088L202.687 111.09Z" stroke="#B0BF02" stroke-width="0.5" stroke-miterlimit="10"/>
<path d="M198.076 113.045L200.837 109.605" stroke="#B0BF02" stroke-width="0.5" stroke-miterlimit="10"/>
<path d="M196.387 107.826L195.613 108.239L195.378 109.084L193.834 107.844C193.527 107.598 193.48 107.151 193.724 106.847L193.844 106.698C194.09 106.392 194.537 106.345 194.841 106.589L196.386 107.828L196.387 107.826Z" stroke="#B0BF02" stroke-width="0.5" stroke-miterlimit="10"/>
<path d="M214.447 118.766L213.587 119.838L216.684 122.323L217.544 121.252L214.447 118.766Z" stroke="#B0BF02" stroke-width="0.5" stroke-miterlimit="10"/>
<path d="M149.264 160.641L145.92 164.807L149.473 167.658C150.992 168.878 153.21 168.634 154.427 167.117C154.606 166.894 154.43 166.569 154.146 166.596L152.968 166.704C150.938 166.891 149.196 165.275 149.225 163.238L149.264 160.641Z" stroke="#B0BF02" stroke-width="0.5" stroke-miterlimit="10"/>
<path d="M146.031 118.423L125.106 144.494L126.42 145.549L147.344 119.477L146.031 118.423Z" stroke="#B0BF02" stroke-width="0.5" stroke-miterlimit="10"/>
</g>
<g filter="url(#filter2_f_111_2097)">
<circle cx="163.391" cy="130.223" r="144.551" fill="#EBFF00" fill-opacity="0.04"/>
</g>
</g>
<defs>
<filter id="filter0_f_111_2097" x="60.1099" y="43.1096" width="192.772" height="192.772" filterUnits="userSpaceOnUse" color-interpolation-filters="sRGB">
<feFlood flood-opacity="0" result="BackgroundImageFix"/>
<feBlend mode="normal" in="SourceGraphic" in2="BackgroundImageFix" result="shape"/>
<feGaussianBlur stdDeviation="1" result="effect1_foregroundBlur_111_2097"/>
</filter>
<filter id="filter1_f_111_2097" x="2.10986" y="-14.8904" width="308.772" height="308.772" filterUnits="userSpaceOnUse" color-interpolation-filters="sRGB">
<feFlood flood-opacity="0" result="BackgroundImageFix"/>
<feBlend mode="normal" in="SourceGraphic" in2="BackgroundImageFix" result="shape"/>
<feGaussianBlur stdDeviation="30" result="effect1_foregroundBlur_111_2097"/>
</filter>
<filter id="filter2_f_111_2097" x="-131.16" y="-164.327" width="589.101" height="589.101" filterUnits="userSpaceOnUse" color-interpolation-filters="sRGB">
<feFlood flood-opacity="0" result="BackgroundImageFix"/>
<feBlend mode="normal" in="SourceGraphic" in2="BackgroundImageFix" result="shape"/>
<feGaussianBlur stdDeviation="75" result="effect1_foregroundBlur_111_2097"/>
</filter>
<radialGradient id="paint0_radial_111_2097" cx="0" cy="0" r="1" gradientUnits="userSpaceOnUse" gradientTransform="translate(342.116 12.0502) rotate(-90) scale(0.5 433.116)">
<stop offset="0.645833" stop-color="#D01027" stop-opacity="0"/>
<stop offset="1" stop-color="#B0071C"/>
</radialGradient>
<radialGradient id="paint1_radial_111_2097" cx="0" cy="0" r="1" gradientUnits="userSpaceOnUse" gradientTransform="translate(342.116 31.6201) rotate(-90) scale(0.5 433.116)">
<stop offset="0.645833" stop-color="#D01027" stop-opacity="0"/>
<stop offset="1" stop-color="#B0071C"/>
</radialGradient>
<radialGradient id="paint2_radial_111_2097" cx="0" cy="0" r="1" gradientUnits="userSpaceOnUse" gradientTransform="translate(342.116 51.1899) rotate(-90) scale(0.5 433.116)">
<stop offset="0.645833" stop-color="#D01027" stop-opacity="0"/>
<stop offset="1" stop-color="#B0071C"/>
</radialGradient>
<radialGradient id="paint3_radial_111_2097" cx="0" cy="0" r="1" gradientUnits="userSpaceOnUse" gradientTransform="translate(342.116 70.7598) rotate(-90) scale(0.5 433.116)">
<stop offset="0.645833" stop-color="#D01027" stop-opacity="0"/>
<stop offset="1" stop-color="#B0071C"/>
</radialGradient>
<radialGradient id="paint4_radial_111_2097" cx="0" cy="0" r="1" gradientUnits="userSpaceOnUse" gradientTransform="translate(342.116 90.3296) rotate(-90) scale(0.5 433.116)">
<stop offset="0.645833" stop-color="#D01027" stop-opacity="0"/>
<stop offset="1" stop-color="#B0071C"/>
</radialGradient>
<radialGradient id="paint5_radial_111_2097" cx="0" cy="0" r="1" gradientUnits="userSpaceOnUse" gradientTransform="translate(342.116 109.899) rotate(-90) scale(0.5 433.116)">
<stop offset="0.645833" stop-color="#D01027" stop-opacity="0"/>
<stop offset="1" stop-color="#B0071C"/>
</radialGradient>
<radialGradient id="paint6_radial_111_2097" cx="0" cy="0" r="1" gradientUnits="userSpaceOnUse" gradientTransform="translate(342.116 129.469) rotate(-90) scale(0.5 433.116)">
<stop offset="0.645833" stop-color="#D01027" stop-opacity="0"/>
<stop offset="1" stop-color="#B0071C"/>
</radialGradient>
<radialGradient id="paint7_radial_111_2097" cx="0" cy="0" r="1" gradientUnits="userSpaceOnUse" gradientTransform="translate(342.116 149.039) rotate(-90) scale(0.5 433.116)">
<stop offset="0.645833" stop-color="#D01027" stop-opacity="0"/>
<stop offset="1" stop-color="#B0071C"/>
</radialGradient>
<radialGradient id="paint8_radial_111_2097" cx="0" cy="0" r="1" gradientUnits="userSpaceOnUse" gradientTransform="translate(342.116 168.609) rotate(-90) scale(0.5 433.116)">
<stop offset="0.645833" stop-color="#D01027" stop-opacity="0"/>
<stop offset="1" stop-color="#B0071C"/>
</radialGradient>
<radialGradient id="paint9_radial_111_2097" cx="0" cy="0" r="1" gradientUnits="userSpaceOnUse" gradientTransform="translate(342.116 188.179) rotate(-90) scale(0.5 433.116)">
<stop offset="0.645833" stop-color="#D01027" stop-opacity="0"/>
<stop offset="1" stop-color="#B0071C"/>
</radialGradient>
<radialGradient id="paint10_radial_111_2097" cx="0" cy="0" r="1" gradientUnits="userSpaceOnUse" gradientTransform="translate(342.116 207.749) rotate(-90) scale(0.5 433.116)">
<stop offset="0.645833" stop-color="#D01027" stop-opacity="0"/>
<stop offset="1" stop-color="#B0071C"/>
</radialGradient>
<radialGradient id="paint11_radial_111_2097" cx="0" cy="0" r="1" gradientUnits="userSpaceOnUse" gradientTransform="translate(342.116 227.319) rotate(-90) scale(0.5 433.116)">
<stop offset="0.645833" stop-color="#D01027" stop-opacity="0"/>
<stop offset="1" stop-color="#B0071C"/>
</radialGradient>
<radialGradient id="paint12_radial_111_2097" cx="0" cy="0" r="1" gradientUnits="userSpaceOnUse" gradientTransform="translate(342.116 246.888) rotate(-90) scale(0.5 433.116)">
<stop offset="0.645833" stop-color="#D01027" stop-opacity="0"/>
<stop offset="1" stop-color="#B0071C"/>
</radialGradient>
<radialGradient id="paint13_radial_111_2097" cx="0" cy="0" r="1" gradientUnits="userSpaceOnUse" gradientTransform="translate(4.15729 117.836) rotate(180) scale(0.5 225.836)">
<stop offset="0.645833" stop-color="#D01027" stop-opacity="0"/>
<stop offset="1" stop-color="#B0071C"/>
</radialGradient>
<radialGradient id="paint14_radial_111_2097" cx="0" cy="0" r="1" gradientUnits="userSpaceOnUse" gradientTransform="translate(20.1006 117.836) rotate(180) scale(0.5 225.836)">
<stop offset="0.645833" stop-color="#D01027" stop-opacity="0"/>
<stop offset="1" stop-color="#B0071C"/>
</radialGradient>
<radialGradient id="paint15_radial_111_2097" cx="0" cy="0" r="1" gradientUnits="userSpaceOnUse" gradientTransform="translate(36.0435 117.836) rotate(180) scale(0.5 225.836)">
<stop offset="0.645833" stop-color="#D01027" stop-opacity="0"/>
<stop offset="1" stop-color="#B0071C"/>
</radialGradient>
<radialGradient id="paint16_radial_111_2097" cx="0" cy="0" r="1" gradientUnits="userSpaceOnUse" gradientTransform="translate(51.9864 117.836) rotate(180) scale(0.5 225.836)">
<stop offset="0.645833" stop-color="#D01027" stop-opacity="0"/>
<stop offset="1" stop-color="#B0071C"/>
</radialGradient>
<radialGradient id="paint17_radial_111_2097" cx="0" cy="0" r="1" gradientUnits="userSpaceOnUse" gradientTransform="translate(67.9293 117.836) rotate(180) scale(0.5 225.836)">
<stop offset="0.645833" stop-color="#D01027" stop-opacity="0"/>
<stop offset="1" stop-color="#B0071C"/>
</radialGradient>
<radialGradient id="paint18_radial_111_2097" cx="0" cy="0" r="1" gradientUnits="userSpaceOnUse" gradientTransform="translate(83.8721 117.836) rotate(180) scale(0.5 225.836)">
<stop offset="0.645833" stop-color="#D01027" stop-opacity="0"/>
<stop offset="1" stop-color="#B0071C"/>
</radialGradient>
<radialGradient id="paint19_radial_111_2097" cx="0" cy="0" r="1" gradientUnits="userSpaceOnUse" gradientTransform="translate(99.815 117.836) rotate(180) scale(0.5 225.836)">
<stop offset="0.645833" stop-color="#D01027" stop-opacity="0"/>
<stop offset="1" stop-color="#B0071C"/>
</radialGradient>
<radialGradient id="paint20_radial_111_2097" cx="0" cy="0" r="1" gradientUnits="userSpaceOnUse" gradientTransform="translate(115.758 117.836) rotate(180) scale(0.5 225.836)">
<stop offset="0.645833" stop-color="#D01027" stop-opacity="0"/>
<stop offset="1" stop-color="#B0071C"/>
</radialGradient>
<radialGradient id="paint21_radial_111_2097" cx="0" cy="0" r="1" gradientUnits="userSpaceOnUse" gradientTransform="translate(131.701 117.836) rotate(180) scale(0.5 225.836)">
<stop offset="0.645833" stop-color="#D01027" stop-opacity="0"/>
<stop offset="1" stop-color="#B0071C"/>
</radialGradient>
<radialGradient id="paint22_radial_111_2097" cx="0" cy="0" r="1" gradientUnits="userSpaceOnUse" gradientTransform="translate(147.644 117.836) rotate(180) scale(0.5 225.836)">
<stop offset="0.645833" stop-color="#D01027" stop-opacity="0"/>
<stop offset="1" stop-color="#B0071C"/>
</radialGradient>
<radialGradient id="paint23_radial_111_2097" cx="0" cy="0" r="1" gradientUnits="userSpaceOnUse" gradientTransform="translate(163.587 117.836) rotate(180) scale(0.5 225.836)">
<stop offset="0.645833" stop-color="#D01027" stop-opacity="0"/>
<stop offset="1" stop-color="#B0071C"/>
</radialGradient>
<radialGradient id="paint24_radial_111_2097" cx="0" cy="0" r="1" gradientUnits="userSpaceOnUse" gradientTransform="translate(179.529 117.836) rotate(180) scale(0.5 225.836)">
<stop offset="0.645833" stop-color="#D01027" stop-opacity="0"/>
<stop offset="1" stop-color="#B0071C"/>
</radialGradient>
<radialGradient id="paint25_radial_111_2097" cx="0" cy="0" r="1" gradientUnits="userSpaceOnUse" gradientTransform="translate(195.472 117.836) rotate(180) scale(0.5 225.836)">
<stop offset="0.645833" stop-color="#D01027" stop-opacity="0"/>
<stop offset="1" stop-color="#B0071C"/>
</radialGradient>
<radialGradient id="paint26_radial_111_2097" cx="0" cy="0" r="1" gradientUnits="userSpaceOnUse" gradientTransform="translate(211.415 117.836) rotate(180) scale(0.5 225.836)">
<stop offset="0.645833" stop-color="#D01027" stop-opacity="0"/>
<stop offset="1" stop-color="#B0071C"/>
</radialGradient>
<radialGradient id="paint27_radial_111_2097" cx="0" cy="0" r="1" gradientUnits="userSpaceOnUse" gradientTransform="translate(227.358 117.836) rotate(180) scale(0.5 225.836)">
<stop offset="0.645833" stop-color="#D01027" stop-opacity="0"/>
<stop offset="1" stop-color="#B0071C"/>
</radialGradient>
<radialGradient id="paint28_radial_111_2097" cx="0" cy="0" r="1" gradientUnits="userSpaceOnUse" gradientTransform="translate(243.301 117.836) rotate(180) scale(0.5 225.836)">
<stop offset="0.645833" stop-color="#D01027" stop-opacity="0"/>
<stop offset="1" stop-color="#B0071C"/>
</radialGradient>
<radialGradient id="paint29_radial_111_2097" cx="0" cy="0" r="1" gradientUnits="userSpaceOnUse" gradientTransform="translate(259.244 117.836) rotate(180) scale(0.5 225.836)">
<stop offset="0.645833" stop-color="#D01027" stop-opacity="0"/>
<stop offset="1" stop-color="#B0071C"/>
</radialGradient>
<clipPath id="clip0_111_2097">
<rect width="308" height="276" fill="white"/>
</clipPath>
<clipPath id="clip1_111_2097">
<rect x="-91" y="-108" width="366.607" height="366.607" rx="30" fill="white"/>
</clipPath>
<clipPath id="clip2_111_2097">
<rect width="276.824" height="103.718" fill="white" transform="translate(43.5654 211.464) rotate(-51.2505)"/>
</clipPath>
</defs>
</svg>
