<svg width="32" height="31" viewBox="0 0 32 31" fill="none" xmlns="http://www.w3.org/2000/svg">
<path d="M3.18736 13.0268C2.79296 12.7988 2.6678 12.4018 2.65935 11.8843H2.62804C2.43219 11.8843 2.27309 11.732 2.27309 11.5446V6.17185C2.27309 5.98386 2.43219 5.83235 2.62804 5.83235H4.54956C4.92148 5.55784 5.34155 5.34044 5.79586 5.19337L5.71547 5.0187C5.63626 4.84649 5.71747 4.64638 5.89673 4.57084L6.22157 4.43295C6.40039 4.35722 6.60976 4.43493 6.68878 4.60714L6.86422 4.98672C6.96847 4.97964 7.07329 4.9749 7.17904 4.9749H27.8334V4.77659C27.8334 4.5886 27.9924 4.43691 28.1881 4.43691H29.8725C30.0683 4.43691 30.2267 4.5886 30.2267 4.77659V4.9749H30.9657L30.6973 6.44799H31.6454C31.8413 6.44799 32 6.59956 32 6.78755V10.9784C32 11.1664 31.8413 11.3188 31.6454 11.3188H29.8096L29.4588 13.2444H17.7907C17.617 13.9222 17.1254 15.1902 15.7758 16.1107C14.976 16.6558 13.7899 16.9326 12.2492 16.9326C11.7458 16.9326 11.2896 16.9017 10.9363 16.8686L8.60485 25.9492C8.58964 26.1356 8.41946 26.2762 8.22454 26.2617L0.327902 26.246C0.132675 26.2316 -0.0137749 26.0683 0.00106239 25.8808L3.18736 13.0268ZM12.2489 16.0818C13.5824 16.0818 14.6239 15.8523 15.2615 15.4176C16.2517 14.7418 16.6846 13.8218 16.8683 13.2433H13.0787C13.3497 13.9081 13.7447 14.5998 14.2305 14.7747C14.3682 14.8238 14.4375 14.971 14.3859 15.1025C14.3462 15.2051 14.2447 15.268 14.1372 15.268C14.1061 15.268 14.0746 15.2632 14.0441 15.2521C13.2987 14.9842 12.7977 14.0182 12.5064 13.2433H11.8664L11.1497 16.0329C11.459 16.0598 11.8379 16.0818 12.2489 16.0818Z" fill="white"/>
</svg>
