<svg width="40" height="40" viewBox="0 0 40 40" fill="none" xmlns="http://www.w3.org/2000/svg">
<rect width="40" height="40" rx="3" fill="#A8ADB5" fill-opacity="0.15"/>
<path d="M24.0791 11.3826C24.9565 11.6072 25.7342 12.1175 26.2896 12.833C26.8449 13.5485 27.1464 14.4284 27.1464 15.3341C27.1464 16.2399 26.8449 17.1198 26.2896 17.8353C25.7342 18.5508 24.9565 19.0611 24.0791 19.2857" stroke="white" stroke-width="2" stroke-linecap="round" stroke-linejoin="round"/>
<path d="M16.9407 19.4081C19.1935 19.4081 21.0198 17.5819 21.0198 15.3291C21.0198 13.0763 19.1935 11.25 16.9407 11.25C14.6879 11.25 12.8617 13.0763 12.8617 15.3291C12.8617 17.5819 14.6879 19.4081 16.9407 19.4081Z" stroke="white" stroke-width="2" stroke-linecap="round" stroke-linejoin="round"/>
<path d="M21.0197 29.7507C22.4352 29.4959 23.5573 29.1077 24.079 28.586C24.1523 27.9263 24.079 26.8864 24.079 26.8864C24.079 25.9848 23.6493 25.1202 22.8843 24.4828C20.4685 22.4696 12.3931 22.4696 9.9773 24.4828C9.21233 25.1202 8.78258 25.9848 8.78258 26.8864C8.78258 26.8864 8.70928 27.9263 8.78258 28.586C9.30425 29.1077 10.4264 29.4959 11.8419 29.7507" stroke="white" stroke-width="2" stroke-linecap="round" stroke-linejoin="round"/>
<path d="M28.1581 29.7508C29.5735 29.496 30.6957 29.1078 31.2174 28.5861C31.2907 27.9264 31.2174 26.8865 31.2174 26.8865C31.2174 25.985 30.7876 25.1204 30.0227 24.4829C29.5729 24.1081 28.9271 23.8031 28.1581 23.5679" stroke="white" stroke-width="2" stroke-linecap="round" stroke-linejoin="round"/>
</svg>
