<svg width="39" height="39" viewBox="0 0 39 39" fill="none" xmlns="http://www.w3.org/2000/svg">
<circle cx="19.5" cy="19.5" r="19.5" fill="white" fill-opacity="0.3"/>
<path d="M19.0014 10C16.4299 10 14.3279 12.102 14.3279 14.6735C14.3279 17.2449 16.4299 19.347 19.0014 19.347C21.5728 19.347 23.6748 17.2449 23.6748 14.6735C23.6748 12.102 21.5728 10 19.0014 10Z" fill="#A6ADB9"/>
<path d="M27.0216 23.0815C26.8991 22.7754 26.7359 22.4897 26.5522 22.2244C25.6134 20.8366 24.1645 19.9182 22.5318 19.6937C22.3278 19.6734 22.1033 19.7141 21.94 19.8366C21.0829 20.4693 20.0625 20.7958 19.0012 20.7958C17.94 20.7958 16.9196 20.4693 16.0624 19.8366C15.8991 19.7141 15.6746 19.6529 15.4706 19.6937C13.8379 19.9182 12.3685 20.8366 11.4502 22.2244C11.2665 22.4897 11.1032 22.7958 10.9808 23.0815C10.9196 23.204 10.94 23.3468 11.0012 23.4693C11.1645 23.755 11.3685 24.0407 11.5522 24.2856C11.8379 24.6734 12.1441 25.0203 12.491 25.3468C12.7767 25.6325 13.1032 25.8979 13.4298 26.1632C15.042 27.3673 16.9808 27.9999 18.9808 27.9999C20.9808 27.9999 22.9196 27.3672 24.5318 26.1632C24.8584 25.9183 25.1849 25.6325 25.4706 25.3468C25.7972 25.0203 26.1237 24.6734 26.4094 24.2856C26.6135 24.0203 26.7972 23.755 26.9604 23.4693C27.0624 23.3468 27.0828 23.2039 27.0216 23.0815Z" fill="#A6ADB9"/>
</svg>
