<svg width="40" height="40" viewBox="0 0 40 40" fill="none" xmlns="http://www.w3.org/2000/svg">
<rect width="40" height="40" rx="3" fill="#40414C"/>
<path d="M15.8587 15.4L18.2586 10C18.9747 10 19.6615 10.2845 20.1678 10.7908C20.6742 11.2972 20.9586 11.9839 20.9586 12.7V16.3H26.0526C26.3135 16.297 26.5719 16.3508 26.81 16.4577C27.0481 16.5645 27.26 16.7218 27.4313 16.9187C27.6025 17.1156 27.7288 17.3474 27.8016 17.598C27.8743 17.8486 27.8917 18.112 27.8526 18.3699L26.6106 26.4699C26.5455 26.8991 26.3275 27.2903 25.9967 27.5715C25.6659 27.8527 25.2447 28.0048 24.8106 27.9999H14.6587H11.9587C11.4813 27.9999 11.0235 27.8102 10.6859 27.4727C10.3483 27.1351 10.1587 26.6773 10.1587 26.1999V19.8999C10.1587 19.4226 10.3483 18.9647 10.6859 18.6272C11.0235 18.2896 11.4813 18.0999 11.9587 18.0999H14.6587V25.2999" stroke="white" stroke-width="2" stroke-linecap="round" stroke-linejoin="round"/>
</svg>
