<svg width="24" height="25" viewBox="0 0 24 25" fill="none" xmlns="http://www.w3.org/2000/svg">
<path fill-rule="evenodd" clip-rule="evenodd" d="M0.518402 15.9999C2.01624 20.9203 6.5901 24.5 12.0001 24.5C18.6274 24.5 24.0001 19.1273 24.0001 12.5C24.0001 5.8726 18.6274 0.5 12.0001 0.5C5.64054 0.5 0.436866 5.44719 0.0258789 11.7027C0.0276067 11.7056 0.0293321 11.7085 0.0310552 11.7114C0.0310797 11.711 0.0310992 11.7107 0.0311134 11.7104L0.0311422 11.7099L6.47911 14.3644C6.65452 14.249 6.84148 14.1491 7.041 14.0677C7.4936 13.8813 7.97092 13.7978 8.44659 13.8195L11.383 9.55386C11.382 9.5349 11.382 9.51472 11.382 9.49453C11.382 6.9771 13.4266 4.92917 15.9399 4.92917C18.4543 4.92917 20.4979 6.9771 20.4979 9.49453C20.4979 12.0117 18.4543 14.0615 15.9399 14.0615C15.906 14.0615 15.8709 14.0605 15.8369 14.0595L11.6354 17.062C11.6478 17.5256 11.5623 17.9901 11.3789 18.433C10.6744 20.1275 8.72151 20.934 7.02781 20.2263C5.99262 19.7947 5.29095 18.8976 5.06208 17.8747L0.518402 15.9999ZM7.31993 19.5238C8.62767 20.0687 10.1322 19.4476 10.6775 18.1384C10.9411 17.506 10.9422 16.8056 10.6816 16.1711C10.421 15.5366 9.92924 15.0401 9.29545 14.7764C8.66681 14.5147 7.99399 14.523 7.40213 14.7475L8.93596 15.3831C9.89988 15.7848 10.3561 16.8931 9.95396 17.8583C9.55306 18.8224 8.44659 19.2797 7.48216 18.878L5.99839 18.2631C6.26115 18.8121 6.71664 19.2725 7.31993 19.5238ZM12.9034 9.49453C12.9034 11.1723 14.2661 12.5371 15.9399 12.5371C17.6148 12.5371 18.9775 11.1723 18.9775 9.49453C18.9775 7.81813 17.6148 6.45291 15.9399 6.45291C14.2661 6.45291 12.9034 7.81813 12.9034 9.49453ZM15.9451 7.20412C14.6864 7.20412 13.6646 8.22778 13.6646 9.48989C13.6646 10.7521 14.6864 11.7748 15.9451 11.7748C17.2048 11.7748 18.2266 10.7521 18.2266 9.48989C18.2266 8.22778 17.2048 7.20412 15.9451 7.20412Z" fill="#2E2E3A"/>
</svg>
